<svg xmlns="http://www.w3.org/2000/svg" xmlns:xlink="http://www.w3.org/1999/xlink" width="810" viewBox="0 0 810 810" height="810" version="1.0"><defs><clipPath id="b"><path d="M 36.46875 121.988281 L 665.71875 121.988281 L 665.71875 604.175781 L 36.46875 604.175781 Z M 36.46875 121.988281"/></clipPath><clipPath id="c"><path d="M 445.21875 98.226562 L 807 98.226562 L 807 711.949219 L 445.21875 711.949219 Z M 445.21875 98.226562"/></clipPath><clipPath id="f"><path d="M 1 0.121094 L 241 0.121094 L 241 273 L 1 273 Z M 1 0.121094"/></clipPath><clipPath id="e"><path d="M0 0H243V273H0z"/></clipPath><clipPath id="g"><path d="M 431 235 L 653 235 L 653 323 L 431 323 Z M 431 235"/></clipPath><clipPath id="h"><path d="M 431.222656 275.511719 L 650.867188 235.628906 L 659.367188 282.453125 L 439.722656 322.332031 Z M 431.222656 275.511719"/></clipPath><clipPath id="i"><path d="M 431.222656 275.511719 L 650.867188 235.628906 L 659.367188 282.453125 L 439.722656 322.332031 Z M 431.222656 275.511719"/></clipPath><clipPath id="j"><path d="M 431.222656 275.511719 L 650.867188 235.628906 L 659.367188 282.453125 L 439.722656 322.332031 Z M 431.222656 275.511719"/></clipPath><clipPath id="k"><path d="M 446 246 L 597 246 L 597 316 L 446 316 Z M 446 246"/></clipPath><clipPath id="l"><path d="M 431.222656 275.511719 L 650.867188 235.628906 L 659.367188 282.453125 L 439.722656 322.332031 Z M 431.222656 275.511719"/></clipPath><clipPath id="m"><path d="M 431.222656 275.511719 L 650.867188 235.628906 L 659.367188 282.453125 L 439.722656 322.332031 Z M 431.222656 275.511719"/></clipPath><clipPath id="n"><path d="M 431.222656 275.511719 L 650.867188 235.628906 L 659.367188 282.453125 L 439.722656 322.332031 Z M 431.222656 275.511719"/></clipPath><g id="o"><path d="M 30.890625 -19.1875 C 30.890625 -17.9375 30.503906 -16.921875 29.734375 -16.140625 C 28.972656 -15.359375 27.953125 -14.96875 26.671875 -14.96875 L 23.03125 -14.96875 L 30.890625 0 L 26.203125 0 L 18.34375 -14.96875 L 8.890625 -14.96875 L 8.890625 0 L 4.671875 0 L 4.671875 -32.75 L 26.671875 -32.75 C 27.953125 -32.75 28.972656 -32.367188 29.734375 -31.609375 C 30.503906 -30.847656 30.890625 -29.828125 30.890625 -28.546875 Z M 26.671875 -17.78125 L 26.671875 -29.953125 L 8.890625 -29.953125 L 8.890625 -17.78125 Z M 26.671875 -17.78125"/></g><g id="p"><path d="M 26.671875 -29.953125 L 8.890625 -29.953125 L 8.890625 -17.78125 L 26.671875 -17.78125 L 26.671875 -14.96875 L 8.890625 -14.96875 L 8.890625 -2.8125 L 26.671875 -2.8125 L 26.671875 0 L 4.671875 0 L 4.671875 -32.75 L 26.671875 -32.75 Z M 26.671875 -29.953125"/></g><g id="q"><path d="M 26.671875 -21.0625 L 26.671875 -29.953125 L 8.890625 -29.953125 L 8.890625 -2.8125 L 26.671875 -2.8125 L 26.671875 -14.96875 L 17.78125 -14.96875 L 17.78125 -17.78125 L 30.890625 -17.78125 L 30.890625 -4.21875 C 30.890625 -2.96875 30.503906 -1.953125 29.734375 -1.171875 C 28.972656 -0.390625 27.953125 0 26.671875 0 L 8.890625 0 C 7.640625 0 6.625 -0.390625 5.84375 -1.171875 C 5.0625 -1.953125 4.671875 -2.96875 4.671875 -4.21875 L 4.671875 -28.546875 C 4.671875 -29.828125 5.0625 -30.847656 5.84375 -31.609375 C 6.625 -32.367188 7.640625 -32.75 8.890625 -32.75 L 26.671875 -32.75 C 27.953125 -32.75 28.972656 -32.367188 29.734375 -31.609375 C 30.503906 -30.847656 30.890625 -29.828125 30.890625 -28.546875 L 30.890625 -21.0625 Z M 26.671875 -21.0625"/></g><g id="r"><path d="M 26.671875 -32.75 C 27.953125 -32.75 28.972656 -32.367188 29.734375 -31.609375 C 30.503906 -30.847656 30.890625 -29.828125 30.890625 -28.546875 L 30.890625 0 L 26.671875 0 L 26.671875 -29.953125 L 8.890625 -29.953125 L 8.890625 0 L 4.671875 0 L 4.671875 -28.546875 C 4.671875 -29.828125 5.0625 -30.847656 5.84375 -31.609375 C 6.625 -32.367188 7.640625 -32.75 8.890625 -32.75 Z M 26.671875 -32.75"/></g><g id="t"><path d="M 3.28125 -27.84375 L 22 -18.484375 L 22 -14.265625 L 3.28125 -4.90625 L 3.28125 -9.125 L 17.78125 -16.375 L 3.28125 -23.625 Z M 3.28125 -27.84375"/></g><g id="u"><path d="M 26.671875 -32.75 C 27.953125 -32.75 28.972656 -32.367188 29.734375 -31.609375 C 30.503906 -30.847656 30.890625 -29.828125 30.890625 -28.546875 L 30.890625 -4.21875 C 30.890625 -2.96875 30.503906 -1.953125 29.734375 -1.171875 C 28.972656 -0.390625 27.953125 0 26.671875 0 L 4.671875 0 L 4.671875 -32.75 Z M 26.671875 -29.953125 L 8.890625 -29.953125 L 8.890625 -2.8125 L 26.671875 -2.8125 Z M 26.671875 -29.953125"/></g><g id="v"><path d="M 2.765625 -15.53125 C 2.765625 -16.695312 3.117188 -17.632812 3.828125 -18.34375 C 4.546875 -19.050781 5.488281 -19.40625 6.65625 -19.40625 L 14.421875 -19.40625 C 15.585938 -19.40625 16.523438 -19.050781 17.234375 -18.34375 C 17.941406 -17.632812 18.296875 -16.695312 18.296875 -15.53125 L 18.296875 -11.375 C 18.296875 -10.207031 17.941406 -9.265625 17.234375 -8.546875 C 16.523438 -7.835938 15.585938 -7.484375 14.421875 -7.484375 L 6.65625 -7.484375 C 6.25 -7.484375 5.914062 -7.359375 5.65625 -7.109375 C 5.394531 -6.859375 5.265625 -6.519531 5.265625 -6.09375 L 5.265625 -1.65625 L 18.296875 -1.65625 L 18.296875 0 L 2.765625 0 L 2.765625 -5.265625 C 2.765625 -6.429688 3.117188 -7.367188 3.828125 -8.078125 C 4.546875 -8.796875 5.488281 -9.15625 6.65625 -9.15625 L 14.421875 -9.15625 C 14.847656 -9.15625 15.1875 -9.28125 15.4375 -9.53125 C 15.6875 -9.789062 15.8125 -10.125 15.8125 -10.53125 L 15.8125 -16.359375 C 15.8125 -16.785156 15.6875 -17.125 15.4375 -17.375 C 15.1875 -17.625 14.847656 -17.75 14.421875 -17.75 L 6.65625 -17.75 C 6.25 -17.75 5.914062 -17.625 5.65625 -17.375 C 5.394531 -17.125 5.265625 -16.785156 5.265625 -16.359375 L 5.265625 -12.484375 L 2.765625 -12.484375 Z M 2.765625 -15.53125"/></g><g id="w"><path d="M 10.8125 -19.40625 L 2.5 2.765625 L 0 2.765625 L 8.3125 -19.40625 Z M 10.8125 -19.40625"/></g><g id="x"><path d="M 4.15625 0 L 4.15625 -17.75 L 1.390625 -17.75 L 1.390625 -19.40625 L 6.65625 -19.40625 L 6.65625 0 Z M 4.15625 0"/></g><g id="y"><path d="M 16.921875 -19.40625 L 9.703125 0 L 7.203125 0 L 13.8125 -17.75 L 1.390625 -17.75 L 1.390625 -19.40625 Z M 16.921875 -19.40625"/></g><g id="z"><path d="M 14.421875 -19.40625 C 15.585938 -19.40625 16.523438 -19.050781 17.234375 -18.34375 C 17.941406 -17.632812 18.296875 -16.695312 18.296875 -15.53125 L 18.296875 -3.875 C 18.296875 -2.71875 17.941406 -1.78125 17.234375 -1.0625 C 16.523438 -0.351562 15.585938 0 14.421875 0 L 6.65625 0 C 5.488281 0 4.546875 -0.351562 3.828125 -1.0625 C 3.117188 -1.78125 2.765625 -2.71875 2.765625 -3.875 L 2.765625 -15.53125 C 2.765625 -16.695312 3.117188 -17.632812 3.828125 -18.34375 C 4.546875 -19.050781 5.488281 -19.40625 6.65625 -19.40625 Z M 15.8125 -16.359375 C 15.8125 -16.785156 15.6875 -17.125 15.4375 -17.375 C 15.1875 -17.625 14.847656 -17.75 14.421875 -17.75 L 6.65625 -17.75 C 6.25 -17.75 5.914062 -17.625 5.65625 -17.375 C 5.394531 -17.125 5.265625 -16.785156 5.265625 -16.359375 L 5.265625 -3.046875 C 5.265625 -2.640625 5.394531 -2.304688 5.65625 -2.046875 C 5.914062 -1.785156 6.25 -1.65625 6.65625 -1.65625 L 14.421875 -1.65625 C 14.847656 -1.65625 15.1875 -1.785156 15.4375 -2.046875 C 15.6875 -2.304688 15.8125 -2.640625 15.8125 -3.046875 Z M 15.8125 -16.359375"/></g><filter x="0%" y="0%" width="100%" xmlns:xlink="http://www.w3.org/1999/xlink" xlink:type="simple" xlink:actuate="onLoad" height="100%" id="a" xlink:show="other"><feColorMatrix values="0 0 0 0 1 0 0 0 0 1 0 0 0 0 1 0 0 0 1 0" color-interpolation-filters="sRGB"/></filter><mask id="d"><g filter="url(#a)"><path fill-opacity=".4" d="M-81 -81H891V891H-81z"/></g></mask></defs><path fill="#FFF" d="M-81 -81H891V891H-81z"/><path fill="#FFF" d="M-81 -81H891V891H-81z"/><path fill="#E7EB13" d="M 40.167969 600.488281 L 40.167969 293.105469 L 111.453125 274.039062 L 128.734375 269.410156 L 662.015625 126.804688 L 662.015625 600.488281 L 40.167969 600.488281"/><g clip-path="url(#b)"><path fill="#040606" d="M 665.71875 121.988281 L 127.769531 265.835938 L 110.496094 270.46875 L 36.46875 290.265625 L 36.46875 604.1875 L 665.71875 604.1875 Z M 658.316406 131.628906 L 658.316406 596.792969 L 43.871094 596.792969 L 43.871094 295.945312 L 112.414062 277.613281 L 129.6875 272.980469 L 658.316406 131.628906"/></g><g clip-path="url(#c)"><path fill="#7ED957" d="M 793.515625 396.679688 C 780.757812 377.300781 763.820312 373.234375 751.855469 373.234375 C 739.605469 373.234375 728.574219 377.453125 719.707031 380.84375 C 718.4375 381.332031 716.917969 381.910156 715.425781 382.457031 C 709.496094 371.523438 705.425781 359.027344 702.925781 344.070312 C 720.957031 319.324219 730.5625 296.058594 731.507812 274.808594 C 734.3125 212.019531 720.875 164.632812 691.566406 133.960938 C 669.253906 110.605469 638.6875 98.261719 603.171875 98.261719 C 585.339844 98.261719 566.917969 101.347656 548.414062 107.433594 C 548.152344 107.519531 547.894531 107.605469 547.632812 107.699219 C 519.613281 117.050781 493.890625 132.527344 475.21875 151.261719 C 473.300781 153.179688 471.4375 155.152344 469.679688 157.113281 L 468.960938 157.9375 C 468.492188 158.476562 468.023438 159.011719 467.5625 159.554688 L 461.734375 166.476562 L 461.734375 167.058594 C 450.960938 182.148438 445.316406 198.0625 445.335938 213.535156 C 445.394531 252.375 452.332031 272.171875 457.394531 286.625 C 459.707031 293.226562 461.234375 297.585938 461.617188 302.289062 C 462.292969 310.703125 461.941406 314.875 461.566406 319.292969 C 461.125 324.519531 460.621094 330.445312 461.703125 339.683594 C 464.460938 363.472656 506.597656 428.257812 510.070312 432.996094 C 518.464844 444.429688 533.03125 450.226562 553.355469 450.226562 C 563.1875 450.226562 573.421875 448.878906 582.242188 446.570312 C 582.757812 450.382812 582.832031 452.746094 582.800781 454.058594 C 575.328125 463.878906 544.332031 487.941406 513.5625 507.613281 L 498.652344 517.136719 L 546.386719 711.984375 L 790.503906 541.53125 L 793.023438 533.476562 C 793.308594 532.5625 800.066406 510.808594 803.949219 484.449219 C 809.769531 444.890625 806.355469 416.179688 793.515625 396.679688 Z M 793.515625 396.679688"/></g><path fill="#327294" d="M 772.894531 410.277344 C 772.890625 410.273438 772.890625 410.269531 772.886719 410.269531 C 772.484375 409.65625 772.074219 409.078125 771.660156 408.519531 C 771.535156 408.351562 771.410156 408.191406 771.285156 408.027344 C 770.980469 407.628906 770.671875 407.242188 770.363281 406.875 C 770.234375 406.71875 770.101562 406.5625 769.96875 406.410156 C 769.617188 406.003906 769.257812 405.613281 768.894531 405.238281 C 768.824219 405.160156 768.75 405.078125 768.675781 405.003906 C 768.21875 404.542969 767.757812 404.105469 767.292969 403.695312 C 767.261719 403.664062 767.226562 403.636719 767.191406 403.609375 C 766.761719 403.234375 766.332031 402.882812 765.894531 402.550781 C 765.808594 402.488281 765.722656 402.425781 765.640625 402.363281 C 765.222656 402.054688 764.800781 401.761719 764.378906 401.488281 C 764.324219 401.453125 764.269531 401.417969 764.214844 401.382812 C 763.21875 400.753906 762.207031 400.222656 761.179688 399.78125 C 761.175781 399.777344 761.175781 399.777344 761.171875 399.777344 C 742.597656 391.792969 719.378906 412.914062 705.464844 408.28125 C 705.46875 408.285156 705.476562 408.285156 705.480469 408.289062 C 694.238281 421.445312 617.328125 513.492188 617.328125 513.492188 C 617.328125 513.492188 610.285156 482.113281 603.316406 467.769531 C 598.386719 474.539062 589.316406 482.84375 579.09375 491.113281 L 603.105469 499.652344 L 586.480469 532.511719 L 590.328125 505.203125 L 578.46875 491.617188 C 555.394531 510.203125 526.847656 528.441406 526.847656 528.441406 L 561.792969 671.085938 L 769.453125 526.089844 C 769.453125 526.089844 795.132812 444.054688 772.894531 410.277344 Z M 648.007812 511.503906 L 625.996094 532.203125 L 637.191406 499.652344 L 723.347656 478.207031 Z M 572.894531 166.808594 C 575.363281 163.179688 578.171875 159.933594 581.300781 157.046875 C 595.285156 160.402344 604 165.011719 604 165.011719 L 604 222.910156 C 603.886719 222.957031 578.351562 233.613281 563.289062 241.738281 C 556.988281 212.699219 560.402344 185.15625 572.894531 166.808594 Z M 506.109375 169.738281 C 508.347656 166.453125 510.835938 163.457031 513.554688 160.730469 C 504.628906 164.117188 495.503906 168.90625 486.429688 175.515625 L 486.429688 175.519531 C 485.199219 176.980469 484.03125 178.453125 482.917969 179.9375 C 482.789062 180.109375 482.664062 180.28125 482.539062 180.457031 C 482.136719 180.996094 481.75 181.542969 481.367188 182.089844 C 481.214844 182.304688 481.0625 182.519531 480.914062 182.738281 C 480.535156 183.289062 480.164062 183.84375 479.804688 184.398438 C 479.6875 184.578125 479.570312 184.753906 479.453125 184.929688 C 479.007812 185.628906 478.574219 186.328125 478.15625 187.03125 C 478.011719 187.269531 477.878906 187.515625 477.738281 187.757812 C 477.460938 188.230469 477.191406 188.703125 476.929688 189.175781 C 476.761719 189.480469 476.601562 189.78125 476.441406 190.085938 C 476.214844 190.511719 475.996094 190.9375 475.78125 191.359375 C 475.625 191.671875 475.46875 191.980469 475.316406 192.292969 C 475.089844 192.757812 474.875 193.226562 474.664062 193.695312 C 474.546875 193.953125 474.425781 194.207031 474.3125 194.464844 C 474.011719 195.148438 473.730469 195.832031 473.460938 196.511719 C 473.34375 196.8125 473.238281 197.113281 473.125 197.410156 C 472.964844 197.839844 472.808594 198.265625 472.660156 198.695312 C 472.546875 199.019531 472.441406 199.34375 472.335938 199.667969 C 472.203125 200.082031 472.074219 200.5 471.949219 200.914062 C 471.855469 201.230469 471.761719 201.546875 471.675781 201.863281 C 471.539062 202.351562 471.417969 202.84375 471.296875 203.332031 C 471.21875 203.652344 471.140625 203.96875 471.070312 204.289062 C 470.941406 204.886719 470.820312 205.484375 470.710938 206.082031 C 470.65625 206.394531 470.609375 206.707031 470.5625 207.019531 C 470.496094 207.429688 470.4375 207.839844 470.382812 208.246094 C 470.339844 208.582031 470.300781 208.917969 470.265625 209.253906 C 470.226562 209.644531 470.195312 210.03125 470.164062 210.421875 C 470.136719 210.761719 470.109375 211.101562 470.09375 211.4375 C 470.070312 211.847656 470.066406 212.257812 470.054688 212.664062 C 470.050781 212.941406 470.03125 213.222656 470.03125 213.5 C 470.054688 226.953125 470.957031 237.722656 472.332031 246.652344 C 476.820312 247.546875 481.289062 248.550781 485.707031 249.742188 C 488.902344 249.917969 492.453125 250.15625 495.960938 250.46875 C 488.914062 219.40625 492.550781 189.652344 506.109375 169.738281 Z M 491.984375 188.851562 C 491.84375 189.195312 491.695312 189.730469 491.453125 190.367188 C 491.234375 191.011719 490.972656 191.789062 490.667969 192.683594 C 490.382812 193.574219 490.03125 194.546875 489.703125 195.625 C 489.332031 196.679688 489.019531 197.851562 488.628906 199.046875 C 488.28125 200.261719 487.90625 201.523438 487.550781 202.832031 C 487.230469 204.152344 486.828125 205.476562 486.546875 206.859375 C 486.386719 207.542969 486.226562 208.230469 486.066406 208.925781 L 485.671875 211.019531 C 485.316406 212.402344 485.230469 213.828125 484.953125 215.207031 C 484.699219 216.589844 484.644531 217.972656 484.429688 219.3125 C 484.226562 220.652344 484.230469 221.960938 484.078125 223.21875 C 483.902344 224.476562 483.925781 225.671875 483.851562 226.792969 C 483.8125 227.910156 483.640625 228.96875 483.660156 229.894531 C 483.652344 230.820312 483.59375 231.652344 483.5625 232.339844 C 483.484375 233.71875 483.363281 234.550781 483.363281 234.550781 C 483.363281 234.550781 482.894531 233.898438 482.199219 232.675781 C 481.855469 232.0625 481.421875 231.3125 480.988281 230.429688 C 480.507812 229.554688 480.21875 228.5 479.804688 227.359375 C 479.433594 226.207031 478.988281 224.953125 478.78125 223.582031 C 478.566406 222.214844 478.222656 220.757812 478.175781 219.234375 C 478.125 218.472656 478.113281 217.699219 478.09375 216.910156 C 478.0625 216.121094 478.046875 215.324219 478.144531 214.527344 C 478.285156 212.925781 478.386719 211.289062 478.746094 209.695312 L 479.265625 207.304688 C 479.453125 206.515625 479.746094 205.753906 479.976562 204.988281 C 480.425781 203.449219 481.089844 202.007812 481.71875 200.625 C 482.367188 199.25 483.113281 197.976562 483.84375 196.796875 C 484.621094 195.640625 485.359375 194.5625 486.15625 193.640625 C 486.910156 192.703125 487.691406 191.902344 488.390625 191.214844 C 489.101562 190.53125 489.773438 189.984375 490.324219 189.546875 C 491.441406 188.675781 492.175781 188.300781 492.175781 188.300781 C 492.175781 188.300781 492.109375 188.488281 491.984375 188.851562 Z M 585.089844 419.375 C 587.523438 418.097656 593.992188 413.8125 602.757812 407.273438 C 602.898438 407.167969 603.042969 407.054688 603.1875 406.949219 C 603.78125 406.503906 604.386719 406.050781 605.003906 405.582031 C 605.253906 405.390625 605.511719 405.199219 605.769531 405.003906 C 606.289062 404.605469 606.820312 404.199219 607.355469 403.789062 C 607.65625 403.558594 607.957031 403.328125 608.265625 403.089844 C 608.773438 402.699219 609.292969 402.296875 609.8125 401.890625 C 610.140625 401.636719 610.464844 401.386719 610.796875 401.125 C 611.4375 400.625 612.089844 400.109375 612.742188 399.59375 C 613.25 399.195312 613.757812 398.789062 614.273438 398.378906 C 614.773438 397.980469 615.273438 397.582031 615.777344 397.175781 C 616.238281 396.804688 616.703125 396.429688 617.167969 396.050781 C 617.578125 395.71875 617.992188 395.386719 618.40625 395.046875 C 618.90625 394.640625 619.410156 394.226562 619.917969 393.8125 C 620.292969 393.503906 620.671875 393.191406 621.054688 392.875 C 621.601562 392.425781 622.148438 391.96875 622.703125 391.507812 C 623.019531 391.242188 623.339844 390.972656 623.660156 390.707031 C 624.269531 390.195312 624.882812 389.683594 625.5 389.160156 C 625.515625 389.144531 625.535156 389.132812 625.550781 389.117188 C 627.175781 387.742188 628.820312 386.332031 630.480469 384.890625 C 630.554688 384.824219 630.632812 384.757812 630.707031 384.691406 C 631.433594 384.0625 632.164062 383.421875 632.894531 382.777344 C 633.097656 382.597656 633.304688 382.417969 633.507812 382.234375 C 634.234375 381.59375 634.960938 380.945312 635.695312 380.292969 C 635.878906 380.125 636.066406 379.957031 636.25 379.792969 C 637.023438 379.097656 637.796875 378.402344 638.570312 377.695312 C 638.632812 377.640625 638.695312 377.582031 638.757812 377.523438 C 648.039062 369.074219 657.527344 359.746094 666.359375 349.902344 L 664.175781 331.667969 L 617.242188 340.933594 L 611.46875 344.339844 L 613.351562 341.703125 L 613.347656 341.703125 L 637.871094 278.464844 L 627.167969 262.550781 C 615.570312 280.261719 595.234375 288.933594 594.203125 289.363281 L 593.375 287.378906 C 585.226562 290.648438 551.46875 301.890625 551.46875 301.890625 L 551.46875 265.277344 C 551.46875 265.277344 549.886719 252.035156 553.203125 248.347656 C 554.101562 247.351562 555.847656 246.089844 558.148438 244.679688 C 551.003906 213.503906 554.625 183.613281 568.230469 163.628906 C 570.191406 160.75 572.347656 158.097656 574.679688 155.644531 C 561.871094 153.289062 545.808594 152.402344 528.429688 156.28125 C 521.378906 160.484375 515.46875 166.027344 510.777344 172.921875 C 497.820312 191.953125 494.613281 220.867188 501.898438 251.089844 C 508.058594 251.847656 513.265625 252.902344 514.925781 254.371094 C 517.089844 256.28125 516.664062 263.886719 516.425781 266.714844 C 519.421875 268.796875 522.101562 271.855469 524.433594 275.8125 L 528.746094 275.8125 L 526.457031 290.609375 L 533.113281 316.46875 C 533.113281 316.46875 548.527344 311.492188 551.570312 314.351562 C 559.144531 321.457031 559.320312 330.246094 559.320312 330.246094 C 559.320312 330.246094 534.386719 341.074219 525.917969 343.898438 C 517.453125 346.722656 508.042969 335.421875 510.394531 326.007812 C 511.242188 322.617188 512.863281 315.148438 514.585938 306.984375 C 506.410156 306.777344 498.25 306.191406 490.210938 304.558594 C 488.9375 304.300781 487.691406 304 486.472656 303.675781 C 486.464844 303.554688 486.457031 303.429688 486.445312 303.304688 C 486.464844 303.617188 486.484375 303.925781 486.503906 304.230469 C 487.359375 319.609375 485.070312 323.214844 485.96875 334.171875 C 486.039062 335.015625 486.125 335.898438 486.234375 336.835938 C 486.335938 337.71875 486.5625 338.761719 486.902344 339.953125 C 487.335938 341.472656 487.96875 343.25 488.738281 345.191406 L 507.117188 362.722656 L 495.582031 360.015625 C 496.195312 361.230469 496.835938 362.46875 497.484375 363.71875 C 508.578125 385.011719 524.585938 411.015625 529.96875 418.355469 C 538.308594 429.710938 573.261719 425.601562 585.089844 419.375 Z M 505.875 337.824219 C 505.113281 337.683594 504.082031 337.421875 502.949219 336.984375 C 501.816406 336.550781 500.578125 335.949219 499.363281 335.191406 C 498.753906 334.808594 498.136719 334.402344 497.554688 333.941406 C 496.949219 333.503906 496.390625 333 495.816406 332.507812 C 495.273438 331.988281 494.722656 331.472656 494.226562 330.914062 C 493.71875 330.371094 493.25 329.800781 492.8125 329.230469 C 491.941406 328.085938 491.222656 326.914062 490.683594 325.828125 C 490.140625 324.742188 489.777344 323.742188 489.5625 323 C 489.335938 322.265625 489.261719 321.785156 489.261719 321.785156 C 489.261719 321.785156 489.746094 321.8125 490.5 321.964844 C 491.257812 322.105469 492.289062 322.375 493.421875 322.808594 C 494.554688 323.242188 495.789062 323.84375 497.007812 324.601562 C 497.621094 324.980469 498.230469 325.390625 498.820312 325.847656 C 499.421875 326.289062 499.988281 326.785156 500.558594 327.277344 C 501.101562 327.800781 501.65625 328.308594 502.152344 328.867188 C 502.667969 329.40625 503.128906 329.984375 503.570312 330.550781 C 504.441406 331.691406 505.160156 332.863281 505.699219 333.953125 C 506.242188 335.035156 506.605469 336.039062 506.816406 336.785156 C 507.039062 337.519531 507.113281 338 507.113281 338 C 507.113281 338 506.628906 337.976562 505.875 337.824219 Z M 565.878906 405.390625 C 565.429688 405.351562 564.882812 405.316406 564.285156 405.234375 C 563.683594 405.15625 563.023438 405.042969 562.292969 404.988281 C 561.566406 404.90625 560.800781 404.800781 560.007812 404.667969 C 559.214844 404.527344 558.371094 404.488281 557.527344 404.34375 C 556.6875 404.183594 555.8125 404.152344 554.949219 404.035156 C 554.074219 403.90625 553.203125 403.859375 552.332031 403.804688 C 551.457031 403.671875 550.605469 403.75 549.75 403.675781 C 548.902344 403.667969 548.070312 403.695312 547.253906 403.710938 C 546.457031 403.785156 545.652344 403.789062 544.90625 403.90625 C 544.140625 403.960938 543.445312 404.113281 542.75 404.203125 C 542.09375 404.351562 541.441406 404.449219 540.890625 404.605469 C 540.316406 404.734375 539.820312 404.875 539.390625 404.996094 C 538.992188 405.140625 538.628906 405.222656 538.410156 405.316406 C 538.175781 405.402344 538.050781 405.445312 538.050781 405.445312 C 538.050781 405.445312 538.199219 404.921875 538.703125 404.117188 C 538.96875 403.734375 539.285156 403.234375 539.742188 402.765625 C 540.171875 402.253906 540.738281 401.78125 541.375 401.253906 C 542.035156 400.792969 542.773438 400.265625 543.621094 399.875 C 544.457031 399.421875 545.394531 399.109375 546.378906 398.796875 C 546.867188 398.628906 547.378906 398.5625 547.898438 398.453125 C 548.414062 398.367188 548.941406 398.222656 549.472656 398.214844 C 550.535156 398.152344 551.632812 398.058594 552.695312 398.171875 C 553.765625 398.265625 554.839844 398.351562 555.84375 398.632812 C 556.863281 398.855469 557.863281 399.105469 558.765625 399.492188 C 559.675781 399.863281 560.5625 400.195312 561.339844 400.628906 C 562.117188 401.074219 562.835938 401.519531 563.484375 401.941406 C 564.785156 402.773438 565.703125 403.746094 566.359375 404.378906 C 567.003906 405.023438 567.332031 405.445312 567.332031 405.445312 C 567.332031 405.445312 566.777344 405.460938 565.878906 405.390625 Z M 614.058594 379.570312 C 615.859375 377.921875 617.734375 376.300781 619.601562 374.671875 C 621.496094 373.074219 623.382812 371.464844 625.285156 369.9375 C 627.171875 368.386719 629.070312 366.910156 630.917969 365.496094 C 634.613281 362.664062 638.15625 360.132812 641.269531 358.050781 C 644.386719 355.972656 647.054688 354.328125 648.960938 353.21875 C 650.863281 352.105469 652.007812 351.535156 652.007812 351.535156 C 652.007812 351.535156 651.265625 352.574219 649.875 354.289062 C 648.492188 356.007812 646.457031 358.394531 643.929688 361.15625 C 641.390625 363.914062 638.351562 367.03125 634.988281 370.253906 C 633.304688 371.863281 631.558594 373.511719 629.738281 375.140625 C 627.9375 376.789062 626.058594 378.40625 624.191406 380.035156 C 622.296875 381.632812 620.40625 383.238281 618.503906 384.765625 C 616.609375 386.3125 614.71875 387.792969 612.867188 389.203125 C 609.171875 392.035156 605.628906 394.5625 602.515625 396.648438 C 599.398438 398.726562 596.734375 400.375 594.824219 401.480469 C 592.925781 402.597656 591.785156 403.171875 591.785156 403.171875 C 591.785156 403.171875 592.527344 402.132812 593.921875 400.421875 C 595.308594 398.703125 597.34375 396.320312 599.875 393.554688 C 602.410156 390.800781 605.449219 387.683594 608.8125 384.460938 C 610.488281 382.847656 612.242188 381.207031 614.058594 379.570312 Z M 579.027344 325.945312 C 579.996094 324.589844 581.429688 322.722656 583.253906 320.597656 C 585.074219 318.472656 587.285156 316.089844 589.753906 313.652344 C 590.984375 312.433594 592.273438 311.195312 593.621094 309.976562 C 594.953125 308.742188 596.347656 307.542969 597.742188 306.332031 C 599.15625 305.152344 600.566406 303.964844 602.003906 302.851562 C 603.417969 301.714844 604.855469 300.648438 606.253906 299.625 C 609.054688 297.582031 611.761719 295.789062 614.152344 294.335938 C 616.542969 292.878906 618.621094 291.765625 620.113281 291.035156 C 621.597656 290.289062 622.5 289.929688 622.5 289.929688 C 622.5 289.929688 622 290.761719 621.023438 292.105469 C 620.058594 293.460938 618.625 295.332031 616.800781 297.457031 C 614.980469 299.582031 612.769531 301.964844 610.304688 304.402344 C 609.066406 305.617188 607.78125 306.859375 606.433594 308.074219 C 605.101562 309.3125 603.699219 310.507812 602.308594 311.714844 C 600.890625 312.894531 599.476562 314.078125 598.042969 315.195312 C 596.625 316.324219 595.195312 317.398438 593.792969 318.417969 C 590.988281 320.457031 588.28125 322.25 585.890625 323.707031 C 583.5 325.164062 581.421875 326.277344 579.933594 327.011719 C 578.449219 327.757812 577.550781 328.121094 577.550781 328.121094 C 577.550781 328.121094 578.050781 327.289062 579.027344 325.945312 Z M 520.785156 375.257812 C 519.042969 374.875 517.539062 374.386719 516.328125 373.957031 C 515.109375 373.542969 514.1875 373.089844 513.570312 372.785156 C 512.953125 372.476562 512.652344 372.257812 512.652344 372.257812 C 512.652344 372.257812 513.011719 372.234375 513.691406 372.191406 C 514.363281 372.15625 515.347656 372.019531 516.566406 371.890625 C 517.796875 371.722656 519.265625 371.515625 520.9375 371.226562 C 522.605469 370.972656 524.480469 370.621094 526.503906 370.242188 C 526.511719 370.238281 526.523438 370.238281 526.53125 370.234375 L 521.183594 365.640625 L 526.601562 352.707031 L 534.292969 358.542969 L 543.808594 348.238281 L 578.347656 356.121094 C 580.296875 355.359375 582.15625 354.597656 583.878906 353.882812 C 585.800781 353.066406 587.5625 352.316406 589.125 351.652344 C 590.703125 350.960938 592.078125 350.359375 593.207031 349.863281 C 595.496094 348.828125 596.804688 348.238281 596.804688 348.238281 C 596.804688 348.238281 596 349.464844 594.320312 351.367188 C 593.464844 352.296875 592.433594 353.457031 591.152344 354.667969 C 589.878906 355.890625 588.394531 357.226562 586.695312 358.585938 C 585.863281 359.292969 584.949219 359.953125 584.003906 360.652344 C 583.070312 361.371094 582.066406 362.046875 581.023438 362.734375 C 580.5 363.078125 579.972656 363.429688 579.4375 363.785156 C 579.191406 363.933594 578.9375 364.085938 578.6875 364.234375 C 574.273438 373.101562 565.6875 387.273438 554.691406 390.332031 C 538.425781 394.851562 530.347656 384.183594 530.347656 384.183594 L 530.765625 376.53125 C 529.359375 376.46875 527.992188 376.375 526.710938 376.234375 C 524.523438 375.988281 522.535156 375.65625 520.785156 375.257812 Z M 619.789062 426.667969 L 654.402344 405.445312 L 622.496094 490.566406 Z M 673.167969 309.050781 C 687.703125 309.050781 699.523438 288.144531 699.523438 262.445312 C 699.523438 236.75 687.703125 215.84375 673.167969 215.84375 C 658.636719 215.84375 646.8125 236.75 646.8125 262.445312 C 646.8125 288.144531 658.636719 309.050781 673.167969 309.050781 Z M 673.167969 230.472656 C 683.953125 230.472656 692.695312 244.789062 692.695312 262.449219 C 692.695312 280.109375 683.953125 294.425781 673.167969 294.425781 C 662.382812 294.425781 655.050781 280.109375 655.050781 262.449219 C 655.050781 244.789062 662.382812 230.472656 673.167969 230.472656 Z M 673.167969 230.472656"/><path fill="#FFF" d="M 674.210938 183.371094 C 675.011719 186.503906 675.378906 188.296875 675.378906 188.296875 C 675.378906 188.296875 674.425781 186.699219 672.914062 183.90625 C 672.21875 182.480469 671.078125 180.894531 669.996094 179 C 669.714844 178.53125 669.421875 178.046875 669.125 177.550781 C 668.789062 177.074219 668.449219 176.585938 668.09375 176.082031 C 667.414062 175.070312 666.699219 174.007812 665.957031 172.902344 C 664.308594 170.796875 662.613281 168.484375 660.578125 166.253906 C 659.621094 165.085938 658.542969 163.984375 657.425781 162.871094 C 656.863281 162.316406 656.332031 161.726562 655.75 161.175781 C 655.15625 160.640625 654.554688 160.101562 653.949219 159.554688 C 651.558594 157.347656 648.871094 155.332031 646.082031 153.394531 C 644.707031 152.394531 643.179688 151.59375 641.75 150.644531 C 640.234375 149.835938 638.746094 148.953125 637.183594 148.214844 C 635.621094 147.46875 634.078125 146.6875 632.460938 146.070312 C 631.660156 145.753906 630.878906 145.386719 630.070312 145.09375 C 629.257812 144.800781 628.449219 144.507812 627.648438 144.214844 C 626.039062 143.632812 624.394531 143.171875 622.792969 142.65625 C 621.160156 142.242188 619.5625 141.746094 617.953125 141.40625 C 614.757812 140.613281 611.597656 140.09375 608.59375 139.597656 C 605.578125 139.195312 602.707031 138.792969 600.03125 138.597656 C 594.683594 138.152344 590.164062 138.074219 586.980469 138.070312 C 585.394531 138.097656 584.132812 138.085938 583.277344 138.128906 C 582.417969 138.15625 581.960938 138.175781 581.960938 138.175781 C 581.960938 138.175781 583.671875 137.480469 586.800781 136.683594 C 588.367188 136.300781 590.28125 135.832031 592.507812 135.480469 C 594.730469 135.105469 597.257812 134.738281 600.035156 134.5625 C 602.816406 134.320312 605.84375 134.253906 609.054688 134.324219 C 612.261719 134.472656 615.660156 134.679688 619.140625 135.277344 C 622.628906 135.800781 626.207031 136.613281 629.769531 137.714844 C 633.347656 138.792969 636.878906 140.226562 640.308594 141.890625 C 642.023438 142.714844 643.660156 143.707031 645.324219 144.628906 C 646.910156 145.671875 648.535156 146.652344 650.027344 147.796875 C 651.515625 148.941406 653.042969 150.019531 654.375 151.296875 C 655.75 152.515625 657.113281 153.714844 658.300781 155.054688 C 658.910156 155.703125 659.515625 156.347656 660.117188 156.980469 C 660.707031 157.628906 661.230469 158.320312 661.769531 158.984375 C 662.839844 160.320312 663.898438 161.609375 664.765625 162.988281 C 665.644531 164.355469 666.613281 165.597656 667.308594 166.957031 C 668.039062 168.285156 668.742188 169.570312 669.417969 170.800781 C 670.574219 173.363281 671.734375 175.640625 672.417969 177.8125 C 673.164062 179.953125 673.859375 181.78125 674.210938 183.371094 Z M 486.066406 208.921875 C 486.230469 208.230469 486.390625 207.542969 486.550781 206.859375 C 486.832031 205.476562 487.230469 204.148438 487.550781 202.832031 C 487.90625 201.523438 488.28125 200.261719 488.628906 199.046875 C 489.019531 197.851562 489.335938 196.679688 489.707031 195.625 C 490.03125 194.546875 490.382812 193.574219 490.667969 192.683594 C 490.972656 191.785156 491.234375 191.007812 491.453125 190.367188 C 491.699219 189.730469 491.847656 189.191406 491.984375 188.847656 C 492.109375 188.488281 492.179688 188.296875 492.179688 188.296875 C 492.179688 188.296875 491.441406 188.667969 490.328125 189.542969 C 489.773438 189.980469 489.101562 190.523438 488.394531 191.210938 C 487.695312 191.894531 486.914062 192.695312 486.15625 193.636719 C 485.363281 194.558594 484.625 195.636719 483.84375 196.792969 C 483.113281 197.972656 482.367188 199.246094 481.71875 200.621094 C 481.089844 202.003906 480.425781 203.441406 479.980469 204.984375 C 479.746094 205.75 479.453125 206.507812 479.265625 207.300781 L 478.75 209.6875 C 478.390625 211.28125 478.285156 212.921875 478.144531 214.519531 C 478.050781 215.320312 478.0625 216.117188 478.09375 216.90625 C 478.113281 217.695312 478.125 218.46875 478.175781 219.230469 C 478.222656 220.75 478.566406 222.210938 478.78125 223.574219 C 478.988281 224.949219 479.4375 226.203125 479.804688 227.351562 C 480.21875 228.496094 480.511719 229.546875 480.988281 230.421875 C 481.425781 231.308594 481.859375 232.054688 482.199219 232.667969 C 482.894531 233.890625 483.363281 234.546875 483.363281 234.546875 C 483.363281 234.546875 483.484375 233.714844 483.5625 232.335938 C 483.597656 231.648438 483.652344 230.816406 483.660156 229.886719 C 483.640625 228.964844 483.8125 227.902344 483.855469 226.785156 C 483.929688 225.664062 483.90625 224.472656 484.082031 223.214844 C 484.234375 221.957031 484.226562 220.652344 484.429688 219.308594 C 484.644531 217.96875 484.703125 216.585938 484.953125 215.203125 C 485.230469 213.820312 485.316406 212.398438 485.675781 211.015625 Z M 499.363281 335.191406 C 500.578125 335.949219 501.816406 336.550781 502.949219 336.984375 C 504.082031 337.421875 505.113281 337.683594 505.875 337.824219 C 506.628906 337.976562 507.113281 338.003906 507.113281 338.003906 C 507.113281 338.003906 507.039062 337.519531 506.816406 336.785156 C 506.605469 336.039062 506.242188 335.039062 505.699219 333.953125 C 505.15625 332.867188 504.441406 331.691406 503.570312 330.550781 C 503.128906 329.984375 502.667969 329.40625 502.152344 328.871094 C 501.65625 328.3125 501.101562 327.800781 500.558594 327.28125 C 499.988281 326.789062 499.421875 326.289062 498.820312 325.847656 C 498.230469 325.394531 497.621094 324.980469 497.007812 324.605469 C 495.789062 323.84375 494.554688 323.242188 493.421875 322.808594 C 492.289062 322.375 491.257812 322.105469 490.5 321.964844 C 489.746094 321.8125 489.261719 321.785156 489.261719 321.785156 C 489.261719 321.785156 489.335938 322.265625 489.5625 323 C 489.777344 323.742188 490.140625 324.746094 490.683594 325.828125 C 491.226562 326.914062 491.941406 328.085938 492.8125 329.230469 C 493.246094 329.800781 493.714844 330.371094 494.226562 330.914062 C 494.722656 331.472656 495.273438 331.988281 495.816406 332.507812 C 496.390625 333.003906 496.949219 333.503906 497.550781 333.945312 C 498.136719 334.402344 498.753906 334.808594 499.363281 335.191406 Z M 577.546875 328.117188 C 577.546875 328.117188 578.449219 327.753906 579.929688 327.011719 C 581.421875 326.277344 583.5 325.164062 585.890625 323.707031 C 588.28125 322.25 590.988281 320.457031 593.789062 318.417969 C 595.191406 317.398438 596.621094 316.324219 598.042969 315.191406 C 599.476562 314.078125 600.890625 312.894531 602.304688 311.714844 C 603.699219 310.507812 605.101562 309.308594 606.429688 308.074219 C 607.78125 306.859375 609.066406 305.613281 610.300781 304.398438 C 612.769531 301.964844 614.976562 299.582031 616.800781 297.457031 C 618.625 295.332031 620.058594 293.460938 621.023438 292.101562 C 621.996094 290.757812 622.5 289.925781 622.5 289.925781 C 622.5 289.925781 621.597656 290.289062 620.113281 291.03125 C 618.621094 291.765625 616.542969 292.878906 614.152344 294.335938 C 611.761719 295.789062 609.050781 297.582031 606.253906 299.625 C 604.855469 300.644531 603.417969 301.714844 602 302.851562 C 600.566406 303.964844 599.15625 305.152344 597.742188 306.332031 C 596.347656 307.539062 594.953125 308.742188 593.621094 309.976562 C 592.273438 311.195312 590.980469 312.433594 589.75 313.652344 C 587.285156 316.085938 585.074219 318.472656 583.253906 320.597656 C 581.429688 322.71875 579.992188 324.589844 579.027344 325.945312 C 578.050781 327.289062 577.546875 328.117188 577.546875 328.117188 Z M 641.265625 358.050781 C 638.15625 360.132812 634.613281 362.664062 630.917969 365.496094 C 629.070312 366.910156 627.171875 368.386719 625.285156 369.9375 C 623.382812 371.464844 621.496094 373.074219 619.601562 374.671875 C 617.734375 376.300781 615.855469 377.921875 614.054688 379.570312 C 612.242188 381.207031 610.488281 382.851562 608.808594 384.464844 C 605.449219 387.6875 602.40625 390.800781 599.871094 393.558594 C 597.339844 396.320312 595.304688 398.707031 593.917969 400.421875 C 592.527344 402.132812 591.785156 403.171875 591.785156 403.171875 C 591.785156 403.171875 592.925781 402.597656 594.820312 401.484375 C 596.730469 400.375 599.394531 398.726562 602.515625 396.652344 C 605.625 394.5625 609.167969 392.035156 612.863281 389.207031 C 614.714844 387.792969 616.605469 386.3125 618.5 384.769531 C 620.402344 383.238281 622.292969 381.632812 624.1875 380.035156 C 626.058594 378.40625 627.933594 376.789062 629.734375 375.140625 C 631.554688 373.511719 633.304688 371.863281 634.984375 370.253906 C 638.347656 367.035156 641.390625 363.914062 643.925781 361.160156 C 646.453125 358.394531 648.488281 356.007812 649.871094 354.289062 C 651.261719 352.578125 652.003906 351.535156 652.003906 351.535156 C 652.003906 351.535156 650.859375 352.109375 648.957031 353.222656 C 647.054688 354.328125 644.382812 355.972656 641.265625 358.050781 Z M 571.222656 269.285156 C 571.042969 270.109375 571.007812 270.933594 570.96875 271.746094 C 570.984375 272.554688 571.023438 273.347656 571.152344 274.09375 C 571.292969 274.835938 571.410156 275.554688 571.648438 276.199219 C 571.875 276.847656 572.058594 277.464844 572.339844 277.992188 C 572.855469 279.066406 573.386719 279.894531 573.832031 280.4375 C 574.253906 280.988281 574.539062 281.277344 574.539062 281.277344 C 574.539062 281.277344 574.601562 280.863281 574.636719 280.183594 C 574.652344 279.84375 574.675781 279.433594 574.667969 278.984375 C 574.699219 278.523438 574.734375 278.011719 574.738281 277.472656 C 574.722656 276.933594 574.796875 276.347656 574.804688 275.75 C 574.789062 275.148438 574.886719 274.527344 574.898438 273.894531 C 574.929688 273.261719 575.03125 272.625 575.070312 271.980469 C 575.191406 271.351562 575.214844 270.699219 575.378906 270.085938 C 575.457031 269.449219 575.660156 268.863281 575.785156 268.25 C 575.992188 267.683594 576.140625 267.09375 576.378906 266.570312 C 576.472656 266.289062 576.597656 266.035156 576.722656 265.789062 C 576.851562 265.542969 576.949219 265.269531 577.097656 265.054688 C 577.234375 264.820312 577.371094 264.589844 577.5 264.367188 C 577.652344 264.15625 577.800781 263.953125 577.941406 263.757812 C 578.222656 263.347656 578.550781 263.023438 578.824219 262.6875 C 579.125 262.4375 579.371094 262.128906 579.640625 261.921875 C 580.199219 261.519531 580.503906 261.246094 580.503906 261.246094 C 580.503906 261.246094 580.097656 261.167969 579.414062 261.113281 C 579.074219 261.105469 578.617188 261.15625 578.089844 261.25 C 577.605469 261.390625 577.015625 261.519531 576.449219 261.820312 C 576.164062 261.964844 575.871094 262.132812 575.5625 262.308594 C 575.28125 262.511719 575 262.738281 574.703125 262.96875 C 574.386719 263.191406 574.167969 263.492188 573.886719 263.769531 C 573.601562 264.046875 573.359375 264.363281 573.136719 264.699219 C 572.640625 265.355469 572.277344 266.097656 571.925781 266.867188 C 571.640625 267.648438 571.359375 268.460938 571.222656 269.285156 Z M 489.613281 288.085938 C 489.761719 287.707031 489.921875 287.289062 490.0625 286.839844 C 490.195312 286.394531 490.410156 285.933594 490.566406 285.449219 C 490.722656 284.960938 490.972656 284.488281 491.136719 283.988281 C 491.382812 283.515625 491.558594 283.003906 491.820312 282.546875 L 492.1875 281.84375 L 492.597656 281.179688 C 492.707031 280.9375 492.886719 280.761719 493.027344 280.542969 C 493.167969 280.332031 493.308594 280.121094 493.480469 279.941406 C 493.78125 279.539062 494.132812 279.203125 494.460938 278.839844 C 494.824219 278.527344 495.164062 278.183594 495.542969 277.921875 C 495.898438 277.605469 496.300781 277.414062 496.664062 277.152344 C 497.039062 276.976562 497.414062 276.703125 497.738281 276.578125 C 498.074219 276.453125 498.367188 276.238281 498.671875 276.167969 C 499.253906 275.972656 499.585938 275.8125 499.585938 275.8125 C 499.585938 275.8125 499.277344 275.605469 498.734375 275.332031 C 498.476562 275.179688 498.085938 275.082031 497.636719 274.96875 C 497.171875 274.835938 496.683594 274.820312 496.105469 274.777344 C 495.554688 274.8125 494.90625 274.816406 494.277344 275.011719 C 493.621094 275.152344 492.972656 275.433594 492.3125 275.769531 C 491.691406 276.148438 491.039062 276.570312 490.5 277.121094 C 489.910156 277.628906 489.464844 278.277344 489.023438 278.910156 L 488.460938 279.914062 C 488.292969 280.25 488.171875 280.609375 488.035156 280.953125 C 487.746094 281.640625 487.648438 282.359375 487.507812 283.035156 C 487.449219 283.71875 487.371094 284.375 487.414062 284.992188 C 487.464844 285.609375 487.488281 286.1875 487.613281 286.707031 C 487.839844 287.75 488.140625 288.574219 488.4375 289.132812 C 488.707031 289.695312 488.910156 289.996094 488.910156 289.996094 C 488.910156 289.996094 489.074219 289.652344 489.277344 289.085938 C 489.378906 288.804688 489.5 288.464844 489.613281 288.085938 Z M 634.515625 159.289062 C 646.746094 161.171875 650.039062 171.058594 646.273438 174.824219 C 642.511719 178.589844 630.75 172.941406 628.667969 185.179688 C 626.585938 197.421875 613.347656 191.773438 613.347656 191.773438 C 613.347656 191.773438 613.347656 208.25 634.515625 202.601562 C 643.707031 200.144531 638.277344 191.773438 643.96875 185.179688 C 649.65625 178.589844 662.210938 188.296875 662.210938 188.296875 C 656.972656 156.578125 634.515625 159.289062 634.515625 159.289062 Z M 634.515625 159.289062"/><g mask="url(#d)"><g><g clip-path="url(#e)" transform="translate(541 399)"><g clip-path="url(#f)"><path d="M 228.453125 127.089844 L 20.792969 272.089844 L 1.457031 193.164062 C 21.984375 190.507812 42.285156 186.0625 62.011719 179.90625 C 79.21875 174.53125 96 167.671875 111.851562 159.066406 C 127.046875 150.816406 141.046875 140.515625 154.078125 129.183594 C 168.421875 116.707031 181.507812 102.6875 192.71875 87.324219 C 203.382812 72.714844 212.371094 56.398438 216.683594 38.726562 C 219.757812 26.128906 220.738281 13.425781 220.171875 0.777344 C 220.171875 0.78125 220.175781 0.78125 220.175781 0.78125 C 221.203125 1.222656 222.21875 1.753906 223.214844 2.382812 C 223.269531 2.417969 223.324219 2.453125 223.375 2.492188 C 223.800781 2.761719 224.21875 3.054688 224.636719 3.363281 C 224.722656 3.425781 224.808594 3.488281 224.894531 3.554688 C 225.328125 3.886719 225.761719 4.234375 226.1875 4.609375 C 226.222656 4.640625 226.257812 4.664062 226.289062 4.695312 C 226.757812 5.105469 227.21875 5.542969 227.671875 6.003906 C 227.746094 6.078125 227.820312 6.160156 227.894531 6.238281 C 228.253906 6.613281 228.613281 7.003906 228.96875 7.414062 C 229.097656 7.5625 229.230469 7.71875 229.359375 7.875 C 229.671875 8.246094 229.976562 8.628906 230.28125 9.027344 C 230.40625 9.191406 230.535156 9.351562 230.660156 9.519531 C 231.070312 10.078125 231.480469 10.65625 231.886719 11.269531 C 231.886719 11.273438 231.886719 11.277344 231.890625 11.277344 C 254.132812 45.054688 228.453125 127.089844 228.453125 127.089844 Z M 228.453125 127.089844"/></g></g></g></g><path d="M 781.140625 404.835938 C 773.8125 393.707031 763.960938 388.0625 751.855469 388.0625 C 742.339844 388.0625 733.125 391.589844 724.996094 394.695312 C 719.367188 396.851562 713.546875 399.074219 709.929688 399.078125 C 708.507812 399.078125 708.035156 398.890625 707.167969 397.503906 L 707.058594 397.332031 C 695.664062 379.890625 690.074219 360.664062 687.332031 340.253906 C 703.675781 318.953125 715.726562 296.019531 716.703125 274.136719 C 719.324219 215.546875 707.265625 171.832031 680.867188 144.199219 C 661.417969 123.847656 634.558594 113.085938 603.1875 113.085938 C 561.933594 113.085938 514.695312 132.65625 485.640625 161.78125 C 468.945312 178.519531 460.132812 196.402344 460.160156 213.503906 C 460.214844 249.84375 466.667969 268.269531 471.378906 281.722656 C 471.527344 282.140625 471.664062 282.535156 471.804688 282.941406 L 470.039062 284.066406 C 470.039062 284.066406 471.148438 285.085938 473.035156 286.523438 C 474.722656 291.546875 475.976562 296.039062 476.386719 301.101562 C 477.167969 310.753906 476.746094 315.742188 476.332031 320.566406 C 475.929688 325.308594 475.515625 330.210938 476.417969 337.976562 C 478.511719 355.972656 515.621094 415.515625 522.007812 424.214844 C 527.453125 431.632812 538 435.394531 553.355469 435.394531 C 553.355469 435.394531 553.359375 435.394531 553.359375 435.394531 C 566.617188 435.394531 581.558594 432.410156 589.691406 428.128906 C 590.460938 427.722656 591.65625 427.007812 593.203125 426.023438 C 599.582031 451.628906 597.335938 458.542969 596.851562 459.617188 C 589.292969 473.445312 546.699219 504.023438 521.53125 520.109375 L 515.566406 523.921875 L 555.628906 687.449219 L 777.867188 532.265625 L 778.875 529.046875 C 781.652344 520.1875 805.265625 441.472656 781.140625 404.835938 Z M 585.09375 419.378906 C 573.269531 425.601562 538.300781 429.710938 529.96875 418.359375 C 524.582031 411.019531 508.578125 385.011719 497.484375 363.71875 C 496.832031 362.46875 496.195312 361.230469 495.578125 360.015625 L 507.113281 362.71875 L 488.738281 345.191406 C 487.96875 343.25 487.335938 341.472656 486.902344 339.953125 C 486.5625 338.761719 486.335938 337.71875 486.230469 336.832031 C 486.121094 335.894531 486.035156 335.015625 485.96875 334.171875 C 485.070312 323.210938 487.355469 319.609375 486.5 304.230469 C 486.472656 303.75 486.445312 303.257812 486.410156 302.753906 L 500.519531 305.945312 L 501.453125 301.8125 L 486.03125 298.324219 C 486.023438 298.238281 486.011719 298.15625 486 298.074219 C 485.9375 297.535156 485.863281 297.003906 485.78125 296.476562 C 485.769531 296.378906 485.753906 296.285156 485.738281 296.191406 C 485.601562 295.320312 485.441406 294.472656 485.269531 293.625 C 485.269531 293.625 485.269531 293.628906 485.269531 293.628906 C 485.273438 293.628906 485.273438 293.628906 485.273438 293.628906 C 486.910156 294.296875 488.621094 294.890625 490.390625 295.332031 C 497.597656 297.136719 508.976562 298.5 516.210938 299.25 C 515.671875 301.828125 515.125 304.4375 514.585938 306.984375 C 512.863281 315.144531 511.246094 322.613281 510.398438 326.003906 C 508.046875 335.421875 517.453125 346.71875 525.921875 343.894531 C 534.386719 341.070312 559.320312 330.242188 559.320312 330.242188 L 548.144531 323.644531 L 520.984375 326.003906 L 526.457031 290.609375 L 528.746094 275.808594 L 524.433594 275.808594 C 522.105469 271.851562 519.425781 268.796875 516.425781 266.710938 C 516.667969 263.882812 517.089844 256.28125 514.929688 254.371094 C 513.265625 252.902344 508.0625 251.84375 501.902344 251.085938 C 499.988281 250.851562 497.984375 250.644531 495.960938 250.464844 C 492.457031 250.152344 488.902344 249.914062 485.710938 249.738281 C 479.125 249.375 474.058594 249.269531 474.058594 249.269531 L 502.039062 261.523438 C 500.535156 261.347656 499 261.242188 497.425781 261.242188 C 492.300781 261.242188 488.460938 262.183594 488.039062 262.292969 L 486.617188 262.652344 L 479.222656 267.355469 L 481.492188 270.933594 L 488.320312 266.59375 L 489.085938 266.398438 C 489.234375 266.363281 492.738281 265.480469 497.425781 265.480469 C 503.746094 265.480469 509.425781 267.066406 513.855469 270.070312 C 516.351562 271.765625 518.628906 274.339844 520.652344 277.722656 C 520.300781 279.445312 519.730469 282.226562 519.03125 285.632812 C 517.171875 281.046875 514.582031 276.535156 511.085938 274.164062 C 502.226562 268.15625 490.300781 271.191406 490.300781 271.191406 L 480.375 277.5 C 480.191406 276.984375 480.007812 276.453125 479.824219 275.921875 C 479.820312 275.910156 479.8125 275.894531 479.808594 275.878906 C 479.695312 275.550781 479.582031 275.21875 479.464844 274.882812 C 479.347656 274.542969 479.234375 274.203125 479.117188 273.859375 C 479.023438 273.589844 478.933594 273.320312 478.839844 273.046875 C 478.683594 272.582031 478.527344 272.113281 478.375 271.640625 C 478.304688 271.429688 478.234375 271.222656 478.164062 271.011719 C 477.976562 270.425781 477.78125 269.824219 477.59375 269.214844 C 477.511719 268.964844 477.433594 268.710938 477.355469 268.457031 C 477.214844 268.007812 477.078125 267.554688 476.941406 267.097656 C 476.859375 266.828125 476.777344 266.558594 476.699219 266.28125 C 476.535156 265.726562 476.371094 265.164062 476.210938 264.589844 C 476.164062 264.421875 476.113281 264.257812 476.066406 264.085938 C 475.867188 263.371094 475.671875 262.640625 475.476562 261.894531 C 475.40625 261.625 475.335938 261.347656 475.265625 261.074219 C 475.128906 260.542969 474.996094 260.007812 474.863281 259.460938 C 474.792969 259.164062 474.71875 258.871094 474.648438 258.570312 C 474.492188 257.910156 474.335938 257.234375 474.183594 256.546875 C 474.148438 256.375 474.109375 256.210938 474.070312 256.039062 C 473.886719 255.203125 473.710938 254.347656 473.539062 253.476562 C 473.476562 253.175781 473.417969 252.867188 473.359375 252.5625 C 473.238281 251.933594 473.117188 251.289062 473 250.636719 C 472.941406 250.308594 472.882812 249.980469 472.824219 249.644531 C 472.6875 248.855469 472.554688 248.050781 472.425781 247.230469 C 472.398438 247.050781 472.367188 246.875 472.339844 246.695312 C 472.335938 246.679688 472.335938 246.664062 472.332031 246.648438 C 472.332031 246.648438 472.332031 246.648438 472.335938 246.648438 C 470.960938 237.71875 470.054688 226.949219 470.035156 213.5 C 470.035156 213.21875 470.054688 212.941406 470.058594 212.664062 C 470.066406 212.253906 470.074219 211.847656 470.097656 211.4375 C 470.113281 211.097656 470.140625 210.757812 470.167969 210.417969 C 470.195312 210.03125 470.226562 209.640625 470.269531 209.25 C 470.304688 208.917969 470.34375 208.578125 470.386719 208.246094 C 470.4375 207.835938 470.5 207.425781 470.5625 207.015625 C 470.613281 206.703125 470.660156 206.390625 470.714844 206.078125 C 470.820312 205.480469 470.941406 204.882812 471.074219 204.285156 C 471.144531 203.96875 471.222656 203.648438 471.300781 203.328125 C 471.421875 202.839844 471.542969 202.347656 471.679688 201.859375 C 471.765625 201.542969 471.859375 201.230469 471.953125 200.910156 C 472.078125 200.496094 472.207031 200.078125 472.339844 199.664062 C 472.445312 199.339844 472.550781 199.015625 472.664062 198.691406 C 472.8125 198.265625 472.96875 197.835938 473.128906 197.410156 C 473.242188 197.109375 473.347656 196.808594 473.464844 196.511719 C 473.734375 195.828125 474.015625 195.144531 474.316406 194.464844 C 474.425781 194.207031 474.550781 193.949219 474.667969 193.695312 C 474.878906 193.226562 475.09375 192.757812 475.320312 192.289062 C 475.472656 191.980469 475.628906 191.667969 475.785156 191.359375 C 476 190.933594 476.21875 190.507812 476.445312 190.085938 C 476.605469 189.78125 476.765625 189.476562 476.933594 189.175781 C 477.195312 188.699219 477.464844 188.226562 477.742188 187.753906 C 477.882812 187.511719 478.015625 187.269531 478.160156 187.027344 C 478.578125 186.324219 479.011719 185.625 479.457031 184.925781 C 479.570312 184.75 479.691406 184.574219 479.808594 184.398438 C 480.167969 183.84375 480.539062 183.289062 480.917969 182.734375 C 481.066406 182.519531 481.21875 182.300781 481.371094 182.085938 C 481.753906 181.539062 482.144531 180.996094 482.542969 180.453125 C 482.667969 180.28125 482.792969 180.109375 482.921875 179.933594 C 484.03125 178.449219 485.203125 176.972656 486.433594 175.515625 L 486.433594 175.5 C 486.84375 175.019531 487.261719 174.542969 487.679688 174.0625 C 487.710938 174.027344 487.738281 173.992188 487.773438 173.957031 C 487.871094 173.839844 487.972656 173.726562 488.070312 173.609375 C 488.214844 173.449219 488.367188 173.289062 488.515625 173.128906 C 493.453125 167.617188 499.234375 162.320312 505.667969 157.367188 C 505.675781 157.359375 505.679688 157.355469 505.683594 157.351562 C 506.835938 156.464844 508.007812 155.589844 509.199219 154.726562 C 509.257812 154.683594 509.320312 154.640625 509.378906 154.597656 C 511.726562 152.902344 514.152344 151.253906 516.644531 149.65625 C 516.742188 149.59375 516.839844 149.527344 516.9375 149.464844 C 518.136719 148.699219 519.351562 147.949219 520.582031 147.207031 C 520.726562 147.117188 520.875 147.03125 521.023438 146.945312 C 523.546875 145.433594 526.132812 143.972656 528.773438 142.574219 C 528.875 142.519531 528.976562 142.46875 529.078125 142.414062 C 530.367188 141.734375 531.671875 141.070312 532.984375 140.417969 C 533.144531 140.339844 533.304688 140.261719 533.464844 140.179688 C 534.804688 139.523438 536.148438 138.878906 537.511719 138.25 C 537.53125 138.238281 537.554688 138.230469 537.578125 138.21875 C 538.972656 137.578125 540.378906 136.953125 541.792969 136.347656 C 541.855469 136.316406 541.921875 136.289062 541.984375 136.261719 C 543.363281 135.671875 544.753906 135.101562 546.152344 134.546875 C 546.3125 134.480469 546.46875 134.417969 546.628906 134.355469 C 548.03125 133.804688 549.441406 133.265625 550.859375 132.75 C 550.921875 132.726562 550.984375 132.703125 551.046875 132.679688 C 552.488281 132.15625 553.933594 131.652344 555.386719 131.167969 C 555.425781 131.152344 555.460938 131.140625 555.5 131.125 C 555.683594 131.070312 555.851562 130.996094 556.035156 130.941406 C 556.707031 130.71875 557.382812 130.511719 558.058594 130.296875 C 558.289062 130.226562 558.519531 130.148438 558.75 130.078125 C 559.390625 129.878906 560.035156 129.683594 560.679688 129.492188 C 561.058594 129.378906 561.4375 129.265625 561.820312 129.15625 C 562.417969 128.980469 563.015625 128.8125 563.617188 128.644531 C 564.050781 128.523438 564.484375 128.40625 564.921875 128.289062 C 565.492188 128.132812 566.0625 127.980469 566.632812 127.832031 C 567.128906 127.707031 567.621094 127.585938 568.117188 127.460938 C 568.640625 127.332031 569.160156 127.199219 569.683594 127.074219 C 570.652344 126.84375 571.625 126.621094 572.597656 126.40625 C 572.984375 126.324219 573.371094 126.246094 573.757812 126.164062 C 574.425781 126.023438 575.09375 125.882812 575.761719 125.753906 C 576.183594 125.667969 576.605469 125.589844 577.03125 125.511719 C 577.675781 125.390625 578.316406 125.269531 578.960938 125.15625 C 579.375 125.085938 579.792969 125.015625 580.210938 124.945312 C 580.890625 124.832031 581.566406 124.722656 582.246094 124.617188 C 582.617188 124.5625 582.988281 124.503906 583.359375 124.449219 C 584.1875 124.328125 585.015625 124.21875 585.84375 124.109375 C 586.0625 124.082031 586.285156 124.050781 586.503906 124.023438 C 587.589844 123.890625 588.679688 123.765625 589.765625 123.65625 C 589.839844 123.652344 589.914062 123.644531 589.992188 123.636719 C 590.984375 123.539062 591.980469 123.453125 592.976562 123.375 C 593.21875 123.355469 593.460938 123.339844 593.707031 123.324219 C 594.546875 123.265625 595.386719 123.210938 596.226562 123.164062 C 596.496094 123.152344 596.761719 123.140625 597.027344 123.125 C 597.890625 123.085938 598.746094 123.054688 599.605469 123.03125 C 599.816406 123.023438 600.027344 123.015625 600.242188 123.011719 C 603.53125 122.9375 606.804688 122.984375 610.058594 123.167969 C 610.179688 123.171875 610.296875 123.183594 610.414062 123.1875 C 611.378906 123.246094 612.339844 123.3125 613.300781 123.394531 C 613.457031 123.40625 613.609375 123.417969 613.765625 123.433594 C 614.742188 123.519531 615.71875 123.617188 616.691406 123.726562 C 616.78125 123.738281 616.871094 123.746094 616.957031 123.757812 C 620.242188 124.136719 623.492188 124.660156 626.703125 125.335938 C 626.742188 125.34375 626.78125 125.351562 626.820312 125.359375 C 627.835938 125.574219 628.847656 125.804688 629.851562 126.050781 C 629.9375 126.070312 630.019531 126.089844 630.101562 126.113281 C 631.128906 126.363281 632.148438 126.628906 633.160156 126.914062 C 633.175781 126.917969 633.1875 126.921875 633.199219 126.925781 C 636.382812 127.816406 639.515625 128.871094 642.589844 130.089844 C 642.59375 130.09375 642.601562 130.09375 642.605469 130.097656 C 643.601562 130.492188 644.59375 130.90625 645.578125 131.339844 C 645.625 131.359375 645.671875 131.382812 645.722656 131.402344 C 649.742188 133.175781 653.648438 135.246094 657.414062 137.636719 C 657.417969 137.636719 657.421875 137.640625 657.421875 137.640625 C 658.347656 138.230469 659.261719 138.835938 660.167969 139.460938 C 660.207031 139.488281 660.25 139.515625 660.289062 139.542969 C 663.972656 142.097656 667.511719 144.972656 670.875 148.1875 C 670.894531 148.207031 670.914062 148.226562 670.933594 148.242188 C 671.742188 149.015625 672.539062 149.8125 673.324219 150.625 C 673.371094 150.675781 673.421875 150.726562 673.472656 150.777344 C 676.726562 154.15625 679.800781 157.875 682.671875 161.957031 C 682.714844 162.015625 682.753906 162.078125 682.796875 162.140625 C 683.460938 163.085938 684.109375 164.050781 684.75 165.035156 C 684.816406 165.136719 684.878906 165.234375 684.945312 165.332031 C 685.601562 166.355469 686.253906 167.398438 686.886719 168.464844 C 686.898438 168.484375 686.910156 168.503906 686.921875 168.523438 C 688.90625 171.855469 690.765625 175.398438 692.496094 179.152344 C 692.558594 179.289062 692.617188 179.425781 692.679688 179.5625 C 693.179688 180.660156 693.671875 181.777344 694.148438 182.914062 C 694.222656 183.089844 694.296875 183.261719 694.371094 183.4375 C 694.863281 184.625 695.34375 185.832031 695.8125 187.058594 C 695.835938 187.121094 695.863281 187.179688 695.886719 187.242188 C 695.898438 187.265625 695.90625 187.292969 695.914062 187.316406 C 696.941406 190.03125 697.910156 192.84375 698.8125 195.757812 C 698.8125 195.765625 698.816406 195.773438 698.820312 195.78125 C 698.828125 195.808594 698.835938 195.835938 698.84375 195.867188 C 699.261719 197.21875 699.660156 198.597656 700.046875 199.992188 C 700.117188 200.242188 700.183594 200.496094 700.253906 200.746094 C 700.585938 201.964844 700.90625 203.199219 701.21875 204.457031 C 701.289062 204.746094 701.363281 205.039062 701.433594 205.335938 C 701.75 206.648438 702.054688 207.980469 702.347656 209.328125 C 702.382812 209.472656 702.417969 209.613281 702.449219 209.757812 C 702.457031 209.8125 702.46875 209.867188 702.480469 209.921875 C 703.15625 213.089844 703.765625 216.355469 704.300781 219.726562 C 704.332031 219.9375 704.363281 220.152344 704.398438 220.363281 C 704.621094 221.785156 704.828125 223.222656 705.023438 224.683594 C 705.078125 225.09375 705.132812 225.511719 705.183594 225.925781 C 705.351562 227.226562 705.507812 228.542969 705.65625 229.871094 C 705.707031 230.328125 705.757812 230.78125 705.804688 231.238281 C 705.949219 232.632812 706.082031 234.039062 706.203125 235.464844 C 706.234375 235.835938 706.273438 236.199219 706.300781 236.574219 C 706.597656 240.191406 706.820312 243.910156 706.964844 247.730469 C 706.980469 248.183594 706.992188 248.644531 707.007812 249.101562 C 707.054688 250.535156 707.09375 251.976562 707.121094 253.4375 C 707.132812 254.066406 707.140625 254.699219 707.144531 255.332031 C 707.164062 256.660156 707.167969 258.003906 707.164062 259.355469 C 707.164062 260.035156 707.164062 260.714844 707.160156 261.402344 C 707.148438 262.796875 707.121094 264.210938 707.09375 265.628906 C 707.078125 266.257812 707.070312 266.878906 707.054688 267.511719 C 707 269.5 706.933594 271.507812 706.84375 273.542969 C 706.839844 273.597656 706.839844 273.648438 706.839844 273.699219 C 706.796875 274.605469 706.730469 275.511719 706.644531 276.421875 C 706.625 276.640625 706.597656 276.859375 706.574219 277.082031 C 706.503906 277.792969 706.417969 278.503906 706.320312 279.21875 C 706.289062 279.449219 706.253906 279.683594 706.21875 279.917969 C 706.105469 280.6875 705.972656 281.457031 705.832031 282.230469 C 705.804688 282.375 705.78125 282.519531 705.75 282.664062 C 705.382812 284.578125 704.925781 286.5 704.390625 288.433594 C 704.367188 288.523438 704.339844 288.613281 704.3125 288.703125 C 704.066406 289.578125 703.804688 290.457031 703.527344 291.335938 C 703.484375 291.460938 703.445312 291.582031 703.40625 291.707031 C 703.105469 292.640625 702.789062 293.582031 702.449219 294.519531 C 702.445312 294.53125 702.441406 294.542969 702.4375 294.554688 C 701.359375 297.550781 700.097656 300.5625 698.683594 303.578125 C 698.664062 303.617188 698.644531 303.660156 698.625 303.699219 C 691.214844 319.414062 679.519531 335.222656 666.363281 349.894531 C 657.53125 359.742188 648.042969 369.066406 638.761719 377.519531 C 638.699219 377.574219 638.636719 377.632812 638.574219 377.6875 C 637.800781 378.394531 637.027344 379.09375 636.253906 379.785156 C 636.070312 379.953125 635.882812 380.121094 635.695312 380.285156 C 634.964844 380.941406 634.238281 381.585938 633.511719 382.230469 C 633.308594 382.410156 633.101562 382.589844 632.898438 382.769531 C 632.167969 383.414062 631.4375 384.054688 630.710938 384.6875 C 630.636719 384.753906 630.558594 384.816406 630.484375 384.882812 C 628.824219 386.324219 627.179688 387.738281 625.554688 389.109375 C 625.539062 389.125 625.519531 389.140625 625.503906 389.15625 C 624.886719 389.675781 624.277344 390.1875 623.664062 390.699219 C 623.34375 390.96875 623.023438 391.238281 622.703125 391.503906 C 622.152344 391.964844 621.605469 392.417969 621.058594 392.871094 C 620.675781 393.183594 620.296875 393.496094 619.921875 393.804688 C 619.414062 394.222656 618.910156 394.632812 618.410156 395.042969 C 617.996094 395.378906 617.582031 395.714844 617.171875 396.046875 C 616.707031 396.421875 616.242188 396.800781 615.78125 397.167969 C 615.273438 397.578125 614.777344 397.972656 614.277344 398.371094 C 613.761719 398.78125 613.25 399.1875 612.746094 399.585938 C 612.09375 400.105469 611.441406 400.617188 610.800781 401.117188 C 610.46875 401.378906 610.144531 401.628906 609.816406 401.886719 C 609.292969 402.289062 608.777344 402.691406 608.269531 403.085938 C 607.960938 403.320312 607.660156 403.550781 607.359375 403.785156 C 606.824219 404.195312 606.292969 404.601562 605.769531 404.996094 C 605.515625 405.191406 605.261719 405.386719 605.007812 405.578125 C 604.390625 406.042969 603.785156 406.496094 603.191406 406.945312 C 603.046875 407.050781 602.902344 407.160156 602.761719 407.265625 C 593.996094 413.808594 587.527344 418.097656 585.09375 419.378906 Z M 487.410156 284.996094 C 487.367188 284.375 487.449219 283.71875 487.503906 283.035156 C 487.648438 282.363281 487.746094 281.644531 488.035156 280.957031 C 488.171875 280.609375 488.289062 280.253906 488.457031 279.914062 L 489.023438 278.910156 C 489.464844 278.277344 489.910156 277.632812 490.5 277.125 C 491.035156 276.570312 491.6875 276.148438 492.3125 275.769531 C 492.972656 275.4375 493.621094 275.15625 494.273438 275.011719 C 494.90625 274.816406 495.550781 274.8125 496.105469 274.777344 C 496.683594 274.820312 497.167969 274.835938 497.636719 274.972656 C 498.082031 275.082031 498.472656 275.179688 498.730469 275.335938 C 499.273438 275.605469 499.582031 275.8125 499.582031 275.8125 C 499.582031 275.8125 499.25 275.972656 498.671875 276.167969 C 498.363281 276.238281 498.074219 276.453125 497.734375 276.578125 C 497.414062 276.703125 497.035156 276.980469 496.660156 277.15625 C 496.296875 277.414062 495.894531 277.605469 495.542969 277.921875 C 495.160156 278.183594 494.820312 278.53125 494.457031 278.839844 C 494.128906 279.207031 493.78125 279.539062 493.476562 279.941406 C 493.304688 280.121094 493.167969 280.335938 493.023438 280.546875 C 492.886719 280.761719 492.707031 280.941406 492.59375 281.183594 L 492.183594 281.847656 L 491.820312 282.550781 C 491.558594 283.007812 491.382812 283.519531 491.136719 283.988281 C 490.96875 284.492188 490.722656 284.960938 490.5625 285.449219 C 490.410156 285.9375 490.191406 286.394531 490.058594 286.84375 C 489.917969 287.289062 489.757812 287.707031 489.613281 288.085938 C 489.496094 288.464844 489.375 288.804688 489.273438 289.085938 C 489.070312 289.652344 488.90625 289.996094 488.90625 289.996094 C 488.90625 289.996094 488.703125 289.695312 488.433594 289.136719 C 488.136719 288.578125 487.835938 287.753906 487.609375 286.710938 C 487.488281 286.191406 487.464844 285.613281 487.410156 284.996094 Z M 526.847656 528.441406 C 526.847656 528.441406 555.394531 510.203125 578.46875 491.621094 L 590.328125 505.207031 L 586.480469 532.515625 L 603.105469 499.652344 L 579.09375 491.117188 C 589.316406 482.84375 598.386719 474.539062 603.316406 467.773438 C 603.773438 467.144531 604.195312 466.535156 604.582031 465.933594 C 604.601562 465.90625 604.617188 465.875 604.636719 465.847656 C 605.011719 465.257812 605.355469 464.683594 605.652344 464.125 C 607.195312 461.035156 607.691406 456.414062 607.425781 450.816406 C 607.375 449.699219 607.289062 448.539062 607.179688 447.347656 C 606.957031 444.960938 606.625 442.4375 606.195312 439.808594 C 605.195312 433.660156 603.679688 426.949219 601.890625 420.125 C 619.925781 407.34375 652.953125 381.242188 678.984375 350.585938 C 682.289062 368.945312 688.199219 386.535156 698.792969 402.746094 C 698.863281 402.863281 698.941406 402.964844 699.011719 403.078125 C 699.167969 403.3125 699.324219 403.554688 699.484375 403.773438 C 699.574219 403.894531 699.664062 404 699.753906 404.113281 C 699.910156 404.316406 700.066406 404.519531 700.226562 404.707031 C 700.308594 404.800781 700.394531 404.886719 700.476562 404.980469 C 700.652344 405.171875 700.824219 405.363281 701.003906 405.542969 C 701.078125 405.613281 701.152344 405.675781 701.226562 405.746094 C 701.425781 405.929688 701.621094 406.113281 701.824219 406.277344 C 701.882812 406.328125 701.945312 406.371094 702.007812 406.421875 C 702.230469 406.59375 702.453125 406.765625 702.683594 406.917969 C 702.730469 406.949219 702.777344 406.980469 702.824219 407.007812 C 703.070312 407.171875 703.320312 407.328125 703.578125 407.46875 C 703.613281 407.484375 703.644531 407.5 703.675781 407.515625 C 703.949219 407.664062 704.226562 407.800781 704.507812 407.921875 C 704.527344 407.929688 704.550781 407.941406 704.570312 407.949219 C 704.863281 408.074219 705.160156 408.1875 705.464844 408.285156 C 719.378906 412.921875 742.597656 391.800781 761.171875 399.785156 C 761.175781 399.785156 761.175781 399.785156 761.179688 399.785156 C 762.207031 400.226562 763.21875 400.761719 764.214844 401.390625 C 764.269531 401.421875 764.324219 401.460938 764.378906 401.496094 C 764.800781 401.769531 765.222656 402.058594 765.640625 402.367188 C 765.726562 402.429688 765.808594 402.492188 765.894531 402.558594 C 766.332031 402.890625 766.761719 403.238281 767.191406 403.613281 C 767.226562 403.644531 767.257812 403.667969 767.292969 403.699219 C 767.757812 404.109375 768.21875 404.546875 768.675781 405.007812 C 768.75 405.085938 768.824219 405.167969 768.894531 405.246094 C 769.257812 405.617188 769.613281 406.007812 769.972656 406.417969 C 770.101562 406.570312 770.234375 406.722656 770.363281 406.878906 C 770.671875 407.25 770.980469 407.636719 771.285156 408.03125 C 771.410156 408.195312 771.535156 408.355469 771.660156 408.523438 C 772.074219 409.082031 772.484375 409.660156 772.886719 410.273438 C 772.890625 410.277344 772.890625 410.28125 772.894531 410.28125 C 795.132812 444.0625 769.453125 526.09375 769.453125 526.09375 L 561.792969 671.089844 Z M 622.5 255.601562 L 593.679688 250.925781 C 593.679688 250.925781 578.355469 252.453125 569.941406 261.355469 C 561.527344 270.261719 564.988281 289.925781 564.988281 289.925781 C 564.988281 289.925781 589.875 280.4375 602.265625 273.671875 C 614.660156 266.90625 622.5 255.601562 622.5 255.601562 Z M 579.644531 261.917969 C 579.371094 262.128906 579.125 262.433594 578.828125 262.6875 C 578.554688 263.019531 578.226562 263.347656 577.945312 263.753906 C 577.804688 263.949219 577.65625 264.15625 577.503906 264.367188 C 577.371094 264.589844 577.238281 264.816406 577.101562 265.054688 C 576.953125 265.269531 576.855469 265.542969 576.726562 265.789062 C 576.601562 266.035156 576.472656 266.285156 576.382812 266.570312 C 576.144531 267.09375 575.992188 267.683594 575.789062 268.25 C 575.664062 268.859375 575.460938 269.445312 575.378906 270.085938 C 575.21875 270.695312 575.191406 271.351562 575.070312 271.980469 C 575.035156 272.625 574.933594 273.261719 574.902344 273.894531 C 574.890625 274.527344 574.792969 275.148438 574.804688 275.75 C 574.800781 276.347656 574.722656 276.929688 574.742188 277.472656 C 574.738281 278.011719 574.703125 278.523438 574.671875 278.984375 C 574.679688 279.433594 574.652344 279.84375 574.636719 280.179688 C 574.601562 280.859375 574.539062 281.273438 574.539062 281.273438 C 574.539062 281.273438 574.257812 280.988281 573.835938 280.4375 C 573.386719 279.894531 572.855469 279.066406 572.34375 277.992188 C 572.0625 277.460938 571.875 276.847656 571.648438 276.199219 C 571.414062 275.554688 571.296875 274.832031 571.152344 274.089844 C 571.023438 273.347656 570.988281 272.550781 570.972656 271.746094 C 571.007812 270.933594 571.046875 270.109375 571.222656 269.285156 C 571.363281 268.460938 571.644531 267.648438 571.929688 266.867188 C 572.28125 266.097656 572.644531 265.351562 573.140625 264.699219 C 573.363281 264.363281 573.605469 264.046875 573.890625 263.769531 C 574.171875 263.488281 574.394531 263.1875 574.707031 262.96875 C 575.003906 262.734375 575.285156 262.511719 575.566406 262.308594 C 575.875 262.132812 576.167969 261.964844 576.453125 261.820312 C 577.019531 261.519531 577.613281 261.390625 578.09375 261.25 C 578.621094 261.15625 579.078125 261.105469 579.417969 261.113281 C 580.101562 261.164062 580.507812 261.242188 580.507812 261.242188 C 580.507812 261.242188 580.199219 261.519531 579.644531 261.917969 Z M 589.125 351.652344 C 587.5625 352.316406 585.796875 353.066406 583.875 353.882812 C 582.152344 354.597656 580.292969 355.355469 578.347656 356.121094 L 543.804688 348.238281 L 534.289062 358.542969 L 526.601562 352.707031 L 521.179688 365.640625 L 526.53125 370.234375 C 526.519531 370.234375 526.511719 370.238281 526.5 370.242188 C 524.476562 370.621094 522.605469 370.972656 520.9375 371.226562 C 519.261719 371.515625 517.792969 371.722656 516.566406 371.890625 C 515.34375 372.019531 514.363281 372.15625 513.691406 372.191406 C 513.011719 372.234375 512.648438 372.257812 512.648438 372.257812 C 512.648438 372.257812 512.949219 372.476562 513.566406 372.785156 C 514.183594 373.089844 515.105469 373.542969 516.324219 373.957031 C 517.535156 374.386719 519.039062 374.875 520.785156 375.257812 C 522.535156 375.65625 524.523438 375.988281 526.703125 376.234375 C 527.988281 376.375 529.359375 376.464844 530.761719 376.53125 L 530.34375 384.183594 C 530.34375 384.183594 538.421875 394.847656 554.6875 390.328125 C 565.683594 387.273438 574.269531 373.101562 578.683594 364.234375 C 578.933594 364.085938 579.1875 363.933594 579.433594 363.785156 C 579.96875 363.429688 580.496094 363.078125 581.015625 362.730469 C 582.0625 362.046875 583.066406 361.371094 584 360.652344 C 584.945312 359.953125 585.855469 359.292969 586.691406 358.582031 C 588.386719 357.226562 589.875 355.890625 591.148438 354.667969 C 592.429688 353.457031 593.457031 352.292969 594.3125 351.363281 C 595.996094 349.460938 596.800781 348.238281 596.800781 348.238281 C 596.800781 348.238281 595.492188 348.828125 593.203125 349.863281 C 592.074219 350.359375 590.699219 350.960938 589.125 351.652344 Z M 546.316406 372.085938 C 546.023438 372.222656 545.664062 372.398438 545.238281 372.546875 C 544.816406 372.730469 544.328125 372.886719 543.785156 372.984375 C 543.242188 373.097656 542.644531 373.210938 542.003906 373.292969 C 541.367188 373.3125 540.679688 373.320312 539.972656 373.296875 C 539.261719 373.265625 538.53125 373.109375 537.792969 372.96875 C 537.050781 372.8125 536.332031 372.5 535.601562 372.25 C 534.910156 371.882812 534.195312 371.5625 533.570312 371.113281 C 532.9375 370.667969 532.335938 370.210938 531.835938 369.667969 C 531.300781 369.175781 530.886719 368.589844 530.496094 368.0625 C 530.140625 367.5 529.816406 366.964844 529.597656 366.429688 C 529.359375 365.910156 529.207031 365.402344 529.09375 364.953125 C 528.960938 364.511719 528.921875 364.097656 528.882812 363.769531 C 528.8125 363.105469 528.878906 362.722656 528.878906 362.722656 C 528.878906 362.722656 529.152344 362.96875 529.632812 363.402344 C 530.117188 363.808594 530.746094 364.382812 531.542969 364.960938 C 531.917969 365.269531 532.363281 365.554688 532.789062 365.871094 C 533.246094 366.15625 533.6875 366.488281 534.1875 366.757812 C 534.660156 367.070312 535.1875 367.320312 535.695312 367.601562 C 536.207031 367.878906 536.761719 368.101562 537.289062 368.367188 C 537.851562 368.570312 538.390625 368.824219 538.953125 369.023438 C 539.527344 369.183594 540.070312 369.4375 540.632812 369.597656 C 541.195312 369.75 541.746094 369.929688 542.273438 370.113281 C 542.8125 370.246094 543.332031 370.382812 543.816406 370.53125 C 544.304688 370.6875 544.757812 370.839844 545.167969 370.929688 C 545.578125 371.027344 545.945312 371.152344 546.25 371.246094 C 546.859375 371.445312 547.226562 371.605469 547.226562 371.605469 C 547.226562 371.605469 546.90625 371.808594 546.316406 372.085938 Z M 560.121094 290.785156 L 555.949219 291.507812 C 555.289062 287.699219 552.644531 269.089844 561.453125 257.222656 L 551.46875 265.277344 C 551.46875 265.277344 549.886719 252.035156 553.203125 248.347656 C 554.101562 247.347656 555.847656 246.089844 558.148438 244.675781 C 559.648438 243.753906 561.382812 242.769531 563.292969 241.738281 C 578.355469 233.613281 603.886719 222.957031 604 222.910156 C 604 222.910156 604.007812 222.90625 604.007812 222.90625 L 604 222.914062 L 603.984375 222.925781 L 573.371094 247.613281 C 582.28125 242.996094 591.398438 241.933594 592.769531 241.796875 L 593.953125 241.667969 L 633.726562 248.109375 L 632.984375 250.449219 C 631.582031 254.875 629.554688 258.898438 627.164062 262.550781 C 615.566406 280.261719 595.234375 288.933594 594.199219 289.363281 L 593.375 287.378906 L 592.570312 285.449219 C 592.847656 285.335938 619.503906 273.964844 628.132812 251.496094 L 593.835938 245.945312 L 593.203125 246.011719 C 591.429688 246.191406 575.746094 248.019531 566.347656 257.960938 C 556.558594 268.320312 559.726562 288.515625 560.121094 290.785156 Z M 648.007812 511.503906 L 625.996094 532.203125 L 637.191406 499.652344 L 723.347656 478.207031 Z M 566.359375 404.375 C 567.007812 405.023438 567.332031 405.445312 567.332031 405.445312 C 567.332031 405.445312 566.777344 405.457031 565.878906 405.390625 C 565.429688 405.351562 564.882812 405.316406 564.285156 405.234375 C 563.683594 405.15625 563.023438 405.042969 562.292969 404.988281 C 561.566406 404.90625 560.800781 404.800781 560.007812 404.667969 C 559.214844 404.527344 558.371094 404.488281 557.527344 404.34375 C 556.6875 404.183594 555.8125 404.152344 554.949219 404.035156 C 554.074219 403.90625 553.203125 403.859375 552.332031 403.804688 C 551.457031 403.671875 550.605469 403.75 549.75 403.675781 C 548.902344 403.667969 548.070312 403.695312 547.253906 403.710938 C 546.457031 403.785156 545.652344 403.789062 544.90625 403.90625 C 544.140625 403.960938 543.445312 404.113281 542.75 404.203125 C 542.09375 404.351562 541.441406 404.449219 540.890625 404.605469 C 540.316406 404.734375 539.820312 404.875 539.390625 404.996094 C 538.992188 405.140625 538.628906 405.222656 538.410156 405.316406 C 538.175781 405.402344 538.050781 405.445312 538.050781 405.445312 C 538.050781 405.445312 538.199219 404.921875 538.703125 404.117188 C 538.96875 403.734375 539.285156 403.234375 539.742188 402.765625 C 540.171875 402.253906 540.738281 401.78125 541.375 401.253906 C 542.035156 400.792969 542.773438 400.265625 543.621094 399.875 C 544.460938 399.421875 545.394531 399.109375 546.378906 398.796875 C 546.867188 398.628906 547.378906 398.5625 547.898438 398.453125 C 548.414062 398.367188 548.941406 398.222656 549.472656 398.214844 C 550.535156 398.152344 551.632812 398.058594 552.695312 398.171875 C 553.765625 398.265625 554.839844 398.351562 555.84375 398.632812 C 556.863281 398.855469 557.863281 399.105469 558.765625 399.492188 C 559.675781 399.863281 560.5625 400.195312 561.339844 400.628906 C 562.117188 401.074219 562.835938 401.519531 563.484375 401.941406 C 564.789062 402.773438 565.707031 403.746094 566.359375 404.375 Z M 613.347656 341.699219 L 611.464844 344.339844 L 617.242188 340.929688 L 664.726562 312.925781 C 667.410156 314.078125 670.234375 314.703125 673.167969 314.703125 C 691.113281 314.703125 705.171875 291.75 705.171875 262.449219 C 705.171875 233.148438 691.113281 210.195312 673.167969 210.195312 C 655.222656 210.195312 641.167969 233.148438 641.167969 262.445312 C 641.167969 274.351562 643.488281 285.210938 647.449219 293.90625 Z M 646.8125 262.449219 C 646.8125 236.75 658.636719 215.84375 673.167969 215.84375 C 687.703125 215.84375 699.523438 236.75 699.523438 262.449219 C 699.523438 288.144531 687.703125 309.054688 673.167969 309.054688 C 658.636719 309.050781 646.8125 288.144531 646.8125 262.449219 Z M 673.167969 294.425781 C 683.953125 294.425781 692.695312 280.109375 692.695312 262.445312 C 692.695312 244.785156 683.953125 230.46875 673.167969 230.46875 C 662.382812 230.46875 655.050781 244.785156 655.050781 262.445312 C 655.050781 280.109375 662.382812 294.425781 673.167969 294.425781 Z M 673.398438 240.886719 C 680.671875 240.886719 686.566406 250.542969 686.566406 262.449219 C 686.566406 274.355469 680.671875 284.007812 673.398438 284.007812 Z M 673.398438 240.886719"/><g clip-path="url(#g)"><g clip-path="url(#h)"><g clip-path="url(#i)"><g clip-path="url(#j)"><path d="M 431.332031 275.910156 L 440.097656 322.289062 L 510.761719 308.097656 L 519.308594 289.195312 L 535.761719 302.539062 L 609.613281 290.832031 L 633.5 253.914062 L 652.523438 246.296875 L 650.828125 235.640625 Z M 431.332031 275.910156"/></g></g></g></g><g clip-path="url(#k)"><g clip-path="url(#l)"><g clip-path="url(#m)"><g clip-path="url(#n)"><path fill="#FFF" d="M 594.929688 257.355469 L 594.835938 257.371094 L 593.960938 257.601562 L 592.214844 259.128906 L 568.714844 287.507812 C 568.296875 288.058594 568.53125 288.285156 569.410156 288.1875 C 569.488281 288.183594 569.566406 288.171875 569.648438 288.15625 C 570.667969 287.972656 572.320312 287.09375 574.613281 285.519531 C 575.996094 284.621094 577.59375 283.078125 579.417969 280.894531 L 581.132812 278.71875 L 595.757812 258.769531 C 596.515625 257.589844 596.238281 257.117188 594.929688 257.355469 Z M 494.832031 276.171875 L 494.738281 276.1875 L 493.859375 276.417969 L 492.117188 277.941406 L 468.613281 306.324219 C 468.199219 306.875 468.429688 307.101562 469.3125 307.003906 C 469.386719 306.996094 469.464844 306.988281 469.550781 306.972656 C 470.566406 306.789062 472.222656 305.910156 474.515625 304.335938 C 475.894531 303.4375 477.496094 301.894531 479.316406 299.710938 L 481.035156 297.535156 L 495.65625 277.585938 C 496.414062 276.402344 496.140625 275.933594 494.832031 276.171875 Z M 595.390625 246.929688 L 595.058594 247.003906 C 591.445312 248.023438 588.707031 249.65625 586.84375 251.90625 C 570.761719 270.542969 558.621094 284.257812 550.417969 293.050781 C 553.976562 291.046875 555.992188 290 556.464844 289.914062 C 557.089844 289.628906 558.007812 288.929688 559.230469 287.816406 C 578.609375 267.511719 590.402344 254.933594 594.609375 250.078125 C 595.824219 248.710938 596.429688 247.785156 596.425781 247.292969 C 596.421875 247.050781 596.269531 246.914062 595.964844 246.886719 Z M 491.222656 269.390625 L 490.894531 269.464844 C 487.277344 270.484375 484.539062 272.121094 482.679688 274.371094 C 466.59375 293.003906 454.453125 306.71875 446.253906 315.515625 C 449.808594 313.507812 451.824219 312.460938 452.300781 312.375 C 452.921875 312.09375 453.84375 311.394531 455.0625 310.277344 C 474.441406 289.976562 486.238281 277.394531 490.445312 272.539062 C 491.65625 271.175781 492.261719 270.246094 492.257812 269.757812 C 492.257812 269.511719 492.101562 269.375 491.796875 269.347656 Z M 491.222656 269.390625"/></g></g></g></g><path fill="#5E17EB" d="M 351.007812 308.546875 C 341.191406 308.546875 333.230469 300.589844 333.230469 290.773438 C 333.230469 280.957031 341.191406 272.996094 351.007812 272.996094 C 360.824219 272.996094 368.78125 280.957031 368.78125 290.773438 C 368.78125 300.589844 360.824219 308.546875 351.007812 308.546875 Z M 351.007812 269.480469 C 339.410156 269.480469 330.007812 278.878906 330.007812 290.476562 C 330.007812 302.074219 339.410156 311.476562 351.007812 311.476562 C 362.605469 311.476562 372.007812 302.074219 372.007812 290.476562 C 372.007812 278.878906 362.605469 269.480469 351.007812 269.480469"/><path fill="#5E17EB" d="M 360.734375 290.464844 L 351.34375 274.894531 L 351.34375 286.191406 L 360.734375 290.464844"/><path fill="#5E17EB" d="M 351.34375 286.929688 L 351.34375 296.71875 L 360.6875 291.183594 L 351.34375 286.929688"/><path fill="#5E17EB" d="M 361.042969 292.371094 L 351.34375 298.101562 L 351.34375 306.0625 L 361.042969 292.371094"/><path fill="#5E17EB" d="M 350.667969 274.890625 L 341.28125 290.464844 L 350.667969 286.191406 L 350.667969 274.890625"/><path fill="#5E17EB" d="M 350.667969 286.929688 L 341.324219 291.183594 L 350.667969 296.71875 L 350.667969 286.929688"/><path fill="#5E17EB" d="M 340.972656 292.371094 L 350.667969 306.0625 L 350.667969 298.101562 L 340.972656 292.371094"/><g fill="#5E17EB"><use x="58.548" y="364.153" xmlns:xlink="http://www.w3.org/1999/xlink" xlink:href="#o" xlink:type="simple" xlink:actuate="onLoad" xlink:show="embed"/></g><g fill="#5E17EB"><use x="94.111" y="364.153" xmlns:xlink="http://www.w3.org/1999/xlink" xlink:href="#p" xlink:type="simple" xlink:actuate="onLoad" xlink:show="embed"/></g><g fill="#5E17EB"><use x="125.462" y="364.153" xmlns:xlink="http://www.w3.org/1999/xlink" xlink:href="#q" xlink:type="simple" xlink:actuate="onLoad" xlink:show="embed"/></g><g fill="#5E17EB"><use x="161.025" y="364.153" xmlns:xlink="http://www.w3.org/1999/xlink" xlink:href="#p" xlink:type="simple" xlink:actuate="onLoad" xlink:show="embed"/></g><g fill="#5E17EB"><use x="192.376" y="364.153" xmlns:xlink="http://www.w3.org/1999/xlink" xlink:href="#r" xlink:type="simple" xlink:actuate="onLoad" xlink:show="embed"/></g><g fill="#5E17EB"><use x="227.938" y="364.153" xmlns:xlink="http://www.w3.org/1999/xlink" xlink:href="#s" xlink:type="simple" xlink:actuate="onLoad" xlink:show="embed"/></g><g fill="#5E17EB"><use x="241.976" y="364.153" xmlns:xlink="http://www.w3.org/1999/xlink" xlink:href="#t" xlink:type="simple" xlink:actuate="onLoad" xlink:show="embed"/></g><g fill="#5E17EB"><use x="267.244" y="364.153" xmlns:xlink="http://www.w3.org/1999/xlink" xlink:href="#s" xlink:type="simple" xlink:actuate="onLoad" xlink:show="embed"/></g><g fill="#5E17EB"><use x="281.282" y="364.153" xmlns:xlink="http://www.w3.org/1999/xlink" xlink:href="#u" xlink:type="simple" xlink:actuate="onLoad" xlink:show="embed"/></g><g fill="#5E17EB"><use x="316.845" y="364.153" xmlns:xlink="http://www.w3.org/1999/xlink" xlink:href="#p" xlink:type="simple" xlink:actuate="onLoad" xlink:show="embed"/></g><g fill="#5E17EB"><use x="348.196" y="364.153" xmlns:xlink="http://www.w3.org/1999/xlink" xlink:href="#q" xlink:type="simple" xlink:actuate="onLoad" xlink:show="embed"/></g><g fill="#5E17EB"><use x="383.758" y="364.153" xmlns:xlink="http://www.w3.org/1999/xlink" xlink:href="#p" xlink:type="simple" xlink:actuate="onLoad" xlink:show="embed"/></g><g fill="#5E17EB"><use x="415.109" y="364.153" xmlns:xlink="http://www.w3.org/1999/xlink" xlink:href="#r" xlink:type="simple" xlink:actuate="onLoad" xlink:show="embed"/></g><g fill="#5E17EB"><use x="278.499" y="398.192" xmlns:xlink="http://www.w3.org/1999/xlink" xlink:href="#v" xlink:type="simple" xlink:actuate="onLoad" xlink:show="embed"/></g><g fill="#5E17EB"><use x="299.571" y="398.192" xmlns:xlink="http://www.w3.org/1999/xlink" xlink:href="#w" xlink:type="simple" xlink:actuate="onLoad" xlink:show="embed"/></g><g fill="#5E17EB"><use x="311.771" y="398.192" xmlns:xlink="http://www.w3.org/1999/xlink" xlink:href="#x" xlink:type="simple" xlink:actuate="onLoad" xlink:show="embed"/></g><g fill="#5E17EB"><use x="321.198" y="398.192" xmlns:xlink="http://www.w3.org/1999/xlink" xlink:href="#y" xlink:type="simple" xlink:actuate="onLoad" xlink:show="embed"/></g><g fill="#5E17EB"><use x="340.884" y="398.192" xmlns:xlink="http://www.w3.org/1999/xlink" xlink:href="#w" xlink:type="simple" xlink:actuate="onLoad" xlink:show="embed"/></g><g fill="#5E17EB"><use x="353.083" y="398.192" xmlns:xlink="http://www.w3.org/1999/xlink" xlink:href="#v" xlink:type="simple" xlink:actuate="onLoad" xlink:show="embed"/></g><g fill="#5E17EB"><use x="374.156" y="398.192" xmlns:xlink="http://www.w3.org/1999/xlink" xlink:href="#z" xlink:type="simple" xlink:actuate="onLoad" xlink:show="embed"/></g><g fill="#5E17EB"><use x="395.228" y="398.192" xmlns:xlink="http://www.w3.org/1999/xlink" xlink:href="#v" xlink:type="simple" xlink:actuate="onLoad" xlink:show="embed"/></g><g fill="#5E17EB"><use x="416.3" y="398.192" xmlns:xlink="http://www.w3.org/1999/xlink" xlink:href="#v" xlink:type="simple" xlink:actuate="onLoad" xlink:show="embed"/></g></svg>