<svg xmlns="http://www.w3.org/2000/svg" xmlns:xlink="http://www.w3.org/1999/xlink" width="810" viewBox="0 0 810 810" height="810" version="1.0"><defs><g id="a"><path d="M 6.703125 0 L 6.703125 -13.421875 L 0 -13.421875 L 0 -60.375 L 13.421875 -60.375 L 13.421875 -13.421875 L 20.125 -13.421875 L 20.125 -53.671875 L 33.546875 -53.671875 L 33.546875 -13.421875 L 40.25 -13.421875 L 40.25 -60.375 L 53.671875 -60.375 L 53.671875 -13.421875 L 46.96875 -13.421875 L 46.96875 0 L 33.546875 0 L 33.546875 -6.703125 L 20.125 -6.703125 L 20.125 0 Z M 6.703125 0"/></g><g id="b"><path d="M 26.84375 -26.84375 L 26.84375 -40.25 L 13.421875 -40.25 L 13.421875 -26.84375 Z M 6.703125 0 L 6.703125 -6.703125 L 0 -6.703125 L 0 -40.25 L 6.703125 -40.25 L 6.703125 -46.96875 L 33.546875 -46.96875 L 33.546875 -40.25 L 40.25 -40.25 L 40.25 -20.125 L 13.421875 -20.125 L 13.421875 -6.703125 L 33.546875 -6.703125 L 33.546875 0 Z M 6.703125 0"/></g><g id="d"><path d="M 6.703125 0 L 6.703125 -6.703125 L 0 -6.703125 L 0 -40.25 L 6.703125 -40.25 L 6.703125 -46.96875 L 33.546875 -46.96875 L 33.546875 -40.25 L 13.421875 -40.25 L 13.421875 -6.703125 L 33.546875 -6.703125 L 33.546875 0 Z M 6.703125 0"/></g><g id="e"><path d="M 26.84375 -6.703125 L 26.84375 -20.125 L 13.421875 -20.125 L 13.421875 -6.703125 Z M 6.703125 0 L 6.703125 -6.703125 L 0 -6.703125 L 0 -20.125 L 6.703125 -20.125 L 6.703125 -26.84375 L 26.84375 -26.84375 L 26.84375 -40.25 L 6.703125 -40.25 L 6.703125 -46.96875 L 33.546875 -46.96875 L 33.546875 -40.25 L 40.25 -40.25 L 40.25 0 Z M 6.703125 0"/></g><g id="f"><path d="M 0 0 L 0 -46.96875 L 33.546875 -46.96875 L 33.546875 -40.25 L 40.25 -40.25 L 40.25 0 L 26.84375 0 L 26.84375 -40.25 L 13.421875 -40.25 L 13.421875 0 Z M 0 0"/></g><g id="g"><path d="M 0 0 L 0 -6.703125 L 20.125 -6.703125 L 20.125 -20.125 L 6.703125 -20.125 L 6.703125 -26.84375 L 0 -26.84375 L 0 -40.25 L 6.703125 -40.25 L 6.703125 -46.96875 L 33.546875 -46.96875 L 33.546875 -40.25 L 13.421875 -40.25 L 13.421875 -26.84375 L 26.84375 -26.84375 L 26.84375 -20.125 L 33.546875 -20.125 L 33.546875 -6.703125 L 26.84375 -6.703125 L 26.84375 0 Z M 0 0"/></g><g id="h"><path d="M 0 0 L 0 -60.375 L -6.703125 -60.375 L -6.703125 -67.09375 L 13.421875 -67.09375 L 13.421875 0 Z M 0 0"/></g><g id="i"><path d="M 0 20.125 L 0 13.421875 L 6.703125 13.421875 L 6.703125 6.703125 L 13.421875 6.703125 L 13.421875 -6.703125 L 6.703125 -6.703125 L 6.703125 -20.125 L 0 -20.125 L 0 -46.96875 L 13.421875 -46.96875 L 13.421875 -13.421875 L 26.84375 -13.421875 L 26.84375 -46.96875 L 40.25 -46.96875 L 40.25 -20.125 L 33.546875 -20.125 L 33.546875 -6.703125 L 26.84375 -6.703125 L 26.84375 6.703125 L 20.125 6.703125 L 20.125 13.421875 L 13.421875 13.421875 L 13.421875 20.125 Z M 0 20.125"/></g><g id="j"><path d="M 0 0 L 0 -60.375 L 13.421875 -60.375 L 13.421875 -53.671875 L 20.125 -53.671875 L 20.125 -40.25 L 26.84375 -40.25 L 26.84375 -53.671875 L 33.546875 -53.671875 L 33.546875 -60.375 L 46.96875 -60.375 L 46.96875 0 L 33.546875 0 L 33.546875 -33.546875 L 26.84375 -33.546875 L 26.84375 -20.125 L 20.125 -20.125 L 20.125 -33.546875 L 13.421875 -33.546875 L 13.421875 0 Z M 0 0"/></g><g id="k"><path d="M 26.84375 -6.703125 L 26.84375 -40.25 L 13.421875 -40.25 L 13.421875 -6.703125 Z M 6.703125 0 L 6.703125 -6.703125 L 0 -6.703125 L 0 -40.25 L 6.703125 -40.25 L 6.703125 -46.96875 L 33.546875 -46.96875 L 33.546875 -40.25 L 40.25 -40.25 L 40.25 -6.703125 L 33.546875 -6.703125 L 33.546875 0 Z M 6.703125 0"/></g><g id="l"><path d="M 0 0 L 0 -67.09375 L 13.421875 -67.09375 L 13.421875 -46.96875 L 33.546875 -46.96875 L 33.546875 -40.25 L 40.25 -40.25 L 40.25 0 L 26.84375 0 L 26.84375 -40.25 L 13.421875 -40.25 L 13.421875 0 Z M 0 0"/></g><g id="m"><path d="M 0 0 L 0 -13.421875 L 13.421875 -13.421875 L 13.421875 0 Z M 0 0"/></g><g id="p"><path d="M 0 0 L 0 -3.84375 L 1.921875 -3.84375 L 1.921875 -5.765625 L 3.84375 -5.765625 L 3.84375 -7.703125 L 5.765625 -7.703125 L 5.765625 -9.625 L 7.703125 -9.625 L 7.703125 -15.390625 L 3.84375 -15.390625 L 3.84375 -13.46875 L 0 -13.46875 L 0 -15.390625 L 1.921875 -15.390625 L 1.921875 -17.3125 L 9.625 -17.3125 L 9.625 -15.390625 L 11.546875 -15.390625 L 11.546875 -9.625 L 9.625 -9.625 L 9.625 -7.703125 L 7.703125 -7.703125 L 7.703125 -5.765625 L 5.765625 -5.765625 L 5.765625 -3.84375 L 3.84375 -3.84375 L 3.84375 -1.921875 L 11.546875 -1.921875 L 11.546875 0 Z M 0 0"/></g><g id="q"><path d="M 0 5.765625 L 0 1.921875 L 1.921875 1.921875 L 1.921875 -3.84375 L 3.84375 -3.84375 L 3.84375 -9.625 L 5.765625 -9.625 L 5.765625 -15.390625 L 7.703125 -15.390625 L 7.703125 -19.234375 L 11.546875 -19.234375 L 11.546875 -15.390625 L 9.625 -15.390625 L 9.625 -9.625 L 7.703125 -9.625 L 7.703125 -3.84375 L 5.765625 -3.84375 L 5.765625 1.921875 L 3.84375 1.921875 L 3.84375 5.765625 Z M 0 5.765625"/></g><g id="r"><path d="M 0 0 L 0 -1.921875 L 1.921875 -1.921875 L 1.921875 -13.46875 L 0 -13.46875 L 0 -15.390625 L 1.921875 -15.390625 L 1.921875 -17.3125 L 5.765625 -17.3125 L 5.765625 -1.921875 L 7.703125 -1.921875 L 7.703125 0 Z M 0 0"/></g><g id="s"><path d="M 3.84375 0 L 3.84375 -5.765625 L 5.765625 -5.765625 L 5.765625 -9.625 L 7.703125 -9.625 L 7.703125 -15.390625 L 0 -15.390625 L 0 -17.3125 L 11.546875 -17.3125 L 11.546875 -9.625 L 9.625 -9.625 L 9.625 -5.765625 L 7.703125 -5.765625 L 7.703125 0 Z M 3.84375 0"/></g><g id="t"><path d="M 7.703125 -1.921875 L 7.703125 -9.625 L 5.765625 -9.625 L 5.765625 -11.546875 L 7.703125 -11.546875 L 7.703125 -15.390625 L 3.84375 -15.390625 L 3.84375 -9.625 L 5.765625 -9.625 L 5.765625 -7.703125 L 3.84375 -7.703125 L 3.84375 -1.921875 Z M 1.921875 0 L 1.921875 -1.921875 L 0 -1.921875 L 0 -15.390625 L 1.921875 -15.390625 L 1.921875 -17.3125 L 9.625 -17.3125 L 9.625 -15.390625 L 11.546875 -15.390625 L 11.546875 -1.921875 L 9.625 -1.921875 L 9.625 0 Z M 1.921875 0"/></g><clipPath id="n"><path d="M 325.273438 441.289062 L 485 441.289062 L 485 601.039062 L 325.273438 601.039062 Z M 325.273438 441.289062"/></clipPath><clipPath id="o"><path d="M 283 117.15625 L 527.363281 117.15625 L 527.363281 276.15625 L 283 276.15625 Z M 283 117.15625"/></clipPath></defs><path fill="#FFF" d="M-81 -81H891V891H-81z"/><path d="M-81 -81H891V891H-81z"/><g fill="#FFF"><use x="39.336" y="369.703" xmlns:xlink="http://www.w3.org/1999/xlink" xlink:href="#a" xlink:type="simple" xlink:actuate="onLoad" xlink:show="embed"/></g><g fill="#FFF"><use x="99.719" y="369.703" xmlns:xlink="http://www.w3.org/1999/xlink" xlink:href="#b" xlink:type="simple" xlink:actuate="onLoad" xlink:show="embed"/></g><g fill="#FFF"><use x="146.684" y="369.703" xmlns:xlink="http://www.w3.org/1999/xlink" xlink:href="#c" xlink:type="simple" xlink:actuate="onLoad" xlink:show="embed"/></g><g fill="#FFF"><use x="166.812" y="369.703" xmlns:xlink="http://www.w3.org/1999/xlink" xlink:href="#d" xlink:type="simple" xlink:actuate="onLoad" xlink:show="embed"/></g><g fill="#FFF"><use x="207.067" y="369.703" xmlns:xlink="http://www.w3.org/1999/xlink" xlink:href="#e" xlink:type="simple" xlink:actuate="onLoad" xlink:show="embed"/></g><g fill="#FFF"><use x="254.032" y="369.703" xmlns:xlink="http://www.w3.org/1999/xlink" xlink:href="#f" xlink:type="simple" xlink:actuate="onLoad" xlink:show="embed"/></g><g fill="#FFF"><use x="300.997" y="369.703" xmlns:xlink="http://www.w3.org/1999/xlink" xlink:href="#c" xlink:type="simple" xlink:actuate="onLoad" xlink:show="embed"/></g><g fill="#FFF"><use x="321.125" y="369.703" xmlns:xlink="http://www.w3.org/1999/xlink" xlink:href="#g" xlink:type="simple" xlink:actuate="onLoad" xlink:show="embed"/></g><g fill="#FFF"><use x="361.38" y="369.703" xmlns:xlink="http://www.w3.org/1999/xlink" xlink:href="#h" xlink:type="simple" xlink:actuate="onLoad" xlink:show="embed"/></g><g fill="#FFF"><use x="381.508" y="369.703" xmlns:xlink="http://www.w3.org/1999/xlink" xlink:href="#e" xlink:type="simple" xlink:actuate="onLoad" xlink:show="embed"/></g><g fill="#FFF"><use x="428.473" y="369.703" xmlns:xlink="http://www.w3.org/1999/xlink" xlink:href="#i" xlink:type="simple" xlink:actuate="onLoad" xlink:show="embed"/></g><g fill="#FFF"><use x="475.438" y="369.703" xmlns:xlink="http://www.w3.org/1999/xlink" xlink:href="#c" xlink:type="simple" xlink:actuate="onLoad" xlink:show="embed"/></g><g fill="#FFF"><use x="495.565" y="369.703" xmlns:xlink="http://www.w3.org/1999/xlink" xlink:href="#j" xlink:type="simple" xlink:actuate="onLoad" xlink:show="embed"/></g><g fill="#FFF"><use x="549.239" y="369.703" xmlns:xlink="http://www.w3.org/1999/xlink" xlink:href="#k" xlink:type="simple" xlink:actuate="onLoad" xlink:show="embed"/></g><g fill="#FFF"><use x="596.204" y="369.703" xmlns:xlink="http://www.w3.org/1999/xlink" xlink:href="#h" xlink:type="simple" xlink:actuate="onLoad" xlink:show="embed"/></g><g fill="#FFF"><use x="616.332" y="369.703" xmlns:xlink="http://www.w3.org/1999/xlink" xlink:href="#k" xlink:type="simple" xlink:actuate="onLoad" xlink:show="embed"/></g><g fill="#FFF"><use x="663.297" y="369.703" xmlns:xlink="http://www.w3.org/1999/xlink" xlink:href="#d" xlink:type="simple" xlink:actuate="onLoad" xlink:show="embed"/></g><g fill="#FFF"><use x="703.553" y="369.703" xmlns:xlink="http://www.w3.org/1999/xlink" xlink:href="#l" xlink:type="simple" xlink:actuate="onLoad" xlink:show="embed"/></g><g fill="#FFF"><use x="750.517" y="369.703" xmlns:xlink="http://www.w3.org/1999/xlink" xlink:href="#m" xlink:type="simple" xlink:actuate="onLoad" xlink:show="embed"/></g><g clip-path="url(#n)"><path fill="#050606" d="M 325.261719 521.144531 C 325.261719 477.035156 361.019531 441.277344 405.128906 441.277344 C 449.238281 441.277344 484.996094 477.035156 484.996094 521.144531 C 484.996094 565.257812 449.238281 601.015625 405.128906 601.015625 C 361.019531 601.015625 325.261719 565.257812 325.261719 521.144531"/></g><path fill="#FFF" d="M 338.347656 521.144531 C 338.347656 484.261719 368.246094 454.359375 405.128906 454.359375 C 442.015625 454.359375 471.914062 484.261719 471.914062 521.144531 C 471.914062 558.03125 442.015625 587.929688 405.128906 587.929688 C 368.246094 587.929688 338.347656 558.03125 338.347656 521.144531"/><path fill="#050606" d="M 339.707031 521.144531 C 339.707031 485.015625 369 455.726562 405.128906 455.726562 C 441.261719 455.726562 470.550781 485.015625 470.550781 521.144531 C 470.550781 557.277344 441.261719 586.566406 405.128906 586.566406 C 369 586.566406 339.707031 557.277344 339.707031 521.144531"/><path fill="#FFF" d="M 403.820312 571.660156 L 374.054688 529.847656 L 403.820312 546.257812 Z M 406.4375 546.257812 L 436.203125 529.847656 L 406.4375 571.660156 Z M 405.128906 578 L 406.4375 576.167969 L 444.988281 522.023438 L 405.128906 543.992188 L 365.273438 522.023438 L 403.820312 576.167969 L 405.128906 578"/><path fill="#FFF" d="M 370.417969 518.960938 L 403.734375 502.941406 L 403.734375 536.75 Z M 403.734375 471.277344 L 403.734375 499.851562 L 371.722656 515.242188 Z M 438.535156 515.242188 L 406.523438 499.851562 L 406.523438 471.277344 Z M 406.523438 536.75 L 406.523438 502.941406 L 439.839844 518.960938 Z M 365.84375 519.660156 L 405.128906 540.648438 L 444.988281 519.371094 L 443.839844 517.792969 L 405.128906 464.632812 L 366.421875 517.792969 L 365.273438 519.371094 L 365.84375 519.660156"/><path fill="#25A24B" d="M 410.429688 121.125 L 429.003906 121.125 C 434.132812 121.125 438.292969 125.28125 438.292969 130.398438 C 438.292969 135.519531 434.132812 139.675781 429.003906 139.675781 L 411.757812 139.675781 L 411.757812 163.527344 L 411.722656 163.828125 C 405.796875 163.132812 399.542969 162.789062 393.179688 162.683594 L 393.179688 130.398438 C 393.179688 125.28125 397.339844 121.125 402.46875 121.125 Z M 410.429688 121.125"/><path fill="#25A24B" d="M 393.171875 227.972656 L 393.195312 227.972656 C 399.550781 227.859375 405.796875 227.515625 411.722656 226.828125 L 411.757812 227.128906 L 411.757812 253.628906 L 429.003906 253.628906 C 434.132812 253.628906 438.292969 257.785156 438.292969 262.90625 C 438.292969 268.023438 434.132812 272.179688 429.003906 272.179688 L 402.46875 272.179688 C 397.339844 272.179688 393.179688 268.023438 393.179688 262.90625 L 393.179688 228.191406 Z M 393.171875 227.972656"/><path fill="#25A24B" d="M 337.449219 225.539062 L 337.46875 225.257812 C 343.09375 225.667969 349.371094 226.171875 356.023438 226.644531 L 356.023438 262.90625 C 356.023438 268.023438 351.859375 272.179688 346.734375 272.179688 L 320.199219 272.179688 C 315.070312 272.179688 310.910156 268.023438 310.910156 262.90625 C 310.910156 257.785156 315.070312 253.632812 320.199219 253.632812 L 337.449219 253.632812 C 337.449219 253.632812 337.449219 225.539062 337.449219 225.539062 Z M 337.449219 225.539062"/><path fill="#25A24B" d="M 338.773438 121.125 L 346.734375 121.125 C 351.859375 121.125 356.023438 125.28125 356.023438 130.398438 L 356.023438 164.007812 C 349.363281 164.480469 343.074219 164.988281 337.449219 165.398438 L 337.449219 139.675781 L 320.199219 139.675781 C 315.070312 139.675781 310.910156 135.519531 310.910156 130.402344 C 310.910156 125.28125 315.070312 121.125 320.199219 121.125 Z M 338.773438 121.125"/><path fill="#0E7936" d="M 393.179688 227.128906 L 393.195312 227.972656 L 393.171875 227.972656 C 380.6875 228.183594 367.773438 227.476562 356.023438 226.648438 L 356.023438 164.007812 C 367.773438 163.175781 380.6875 162.472656 393.175781 162.683594 L 393.175781 227.128906 Z M 393.179688 227.128906"/><path fill="#23A24D" d="M 393.179688 162.683594 C 399.542969 162.789062 405.796875 163.132812 411.722656 163.828125 C 430.878906 166.046875 446.703125 171.84375 452.140625 184.726562 L 512.601562 184.726562 C 518.464844 184.726562 523.21875 189.472656 523.21875 195.328125 C 523.21875 201.183594 518.464844 205.925781 512.601562 205.925781 L 452.140625 205.925781 C 446.703125 218.8125 430.878906 224.605469 411.722656 226.828125 C 405.796875 227.515625 399.550781 227.859375 393.195312 227.972656 L 393.179688 227.128906 Z M 393.179688 162.683594"/><path fill="#23A24D" d="M 337.449219 165.398438 C 343.074219 164.988281 349.363281 164.480469 356.023438 164.007812 L 356.023438 226.644531 C 349.371094 226.171875 343.09375 225.667969 337.46875 225.257812 C 331.203125 224.804688 325.753906 224.476562 321.523438 224.476562 C 289.679688 224.476562 287.027344 195.328125 287.027344 195.328125 C 287.027344 195.328125 289.679688 166.175781 321.523438 166.175781 C 325.75 166.175781 331.191406 165.851562 337.449219 165.398438 Z M 337.449219 165.398438"/><path d="M 320.199219 208.574219 L 320.199219 197.972656 L 312.234375 197.972656 L 312.234375 208.574219 Z M 320.199219 208.574219"/><path d="M 320.199219 192.675781 L 320.199219 182.074219 L 312.234375 182.074219 L 312.234375 192.675781 Z M 320.199219 192.675781"/><g clip-path="url(#o)"><path d="M 346.734375 117.148438 L 320.199219 117.148438 C 312.878906 117.148438 306.929688 123.09375 306.929688 130.398438 C 306.929688 137.707031 312.878906 143.648438 320.199219 143.648438 L 333.46875 143.648438 L 333.46875 161.691406 C 329.28125 161.96875 324.96875 162.203125 321.523438 162.203125 C 303.269531 162.203125 293.746094 171.128906 288.976562 178.617188 C 283.871094 186.625 283.089844 194.628906 283.0625 194.96875 L 283.027344 195.328125 L 283.0625 195.6875 C 283.09375 196.023438 283.871094 204.027344 288.976562 212.039062 C 293.746094 219.527344 303.269531 228.453125 321.527344 228.453125 C 324.914062 228.453125 329.144531 228.679688 333.46875 228.964844 L 333.46875 249.65625 L 320.199219 249.65625 C 312.882812 249.65625 306.929688 255.601562 306.929688 262.90625 C 306.929688 270.214844 312.882812 276.15625 320.199219 276.15625 L 346.734375 276.15625 C 354.050781 276.15625 360.007812 270.214844 360.007812 262.90625 L 360.007812 230.902344 C 368.652344 231.476562 378.941406 232.003906 389.199219 231.980469 L 389.199219 262.90625 C 389.199219 270.214844 395.152344 276.15625 402.46875 276.15625 L 429.003906 276.15625 C 436.320312 276.15625 442.273438 270.214844 442.273438 262.90625 C 442.273438 255.601562 436.320312 249.65625 429.003906 249.65625 L 415.738281 249.65625 L 415.738281 230.316406 C 436.027344 227.425781 448.8125 220.726562 454.644531 209.902344 L 512.601562 209.902344 C 520.648438 209.902344 527.195312 203.363281 527.195312 195.328125 C 527.195312 187.292969 520.648438 180.753906 512.601562 180.753906 L 454.644531 180.753906 C 448.8125 169.929688 436.027344 163.226562 415.738281 160.339844 L 415.738281 143.648438 L 429.003906 143.648438 C 436.324219 143.648438 442.273438 137.707031 442.273438 130.402344 C 442.273438 123.09375 436.324219 117.152344 429.003906 117.152344 L 402.46875 117.152344 C 395.152344 117.152344 389.199219 123.09375 389.199219 130.402344 L 389.199219 158.675781 C 378.917969 158.652344 368.644531 159.179688 360.007812 159.75 L 360.007812 130.402344 C 360.007812 123.09375 354.050781 117.148438 346.734375 117.148438 Z M 341.429688 135.699219 L 320.199219 135.699219 C 317.273438 135.699219 314.890625 133.320312 314.890625 130.398438 C 314.890625 127.476562 317.273438 125.097656 320.199219 125.097656 L 346.734375 125.097656 C 349.664062 125.097656 352.046875 127.476562 352.046875 130.398438 L 352.046875 160.3125 C 349.550781 160.496094 347.117188 160.679688 344.765625 160.859375 C 343.632812 160.945312 342.519531 161.03125 341.429688 161.113281 Z M 389.199219 166.625 L 389.199219 224.03125 C 385.640625 224.039062 382.078125 223.980469 378.585938 223.875 L 378.585938 184.726562 L 370.621094 184.726562 L 370.621094 223.554688 C 366.898438 223.375 363.324219 223.15625 360.007812 222.9375 L 360.007812 167.71875 C 368.621094 167.144531 378.933594 166.605469 389.199219 166.625 Z M 337.753906 221.292969 C 332.050781 220.882812 326.136719 220.503906 321.523438 220.503906 C 295.335938 220.503906 291.464844 198.617188 291.035156 195.34375 C 291.230469 193.921875 292.210938 188.351562 295.691406 182.886719 C 301.078125 174.4375 309.765625 170.152344 321.523438 170.152344 C 326.253906 170.152344 332.375 169.753906 337.738281 169.363281 C 340.167969 169.1875 342.71875 168.992188 345.371094 168.789062 C 347.53125 168.625 349.765625 168.453125 352.046875 168.285156 L 352.046875 222.371094 C 349.769531 222.203125 347.539062 222.03125 345.386719 221.867188 C 342.734375 221.664062 340.1875 221.46875 337.753906 221.292969 Z M 346.734375 268.207031 L 320.199219 268.207031 C 317.273438 268.207031 314.890625 265.828125 314.890625 262.90625 C 314.890625 259.984375 317.273438 257.605469 320.199219 257.605469 L 341.429688 257.605469 L 341.429688 229.539062 C 342.527344 229.621094 343.640625 229.707031 344.777344 229.792969 C 347.125 229.972656 349.554688 230.160156 352.046875 230.34375 L 352.046875 262.90625 C 352.046875 265.828125 349.664062 268.207031 346.734375 268.207031 Z M 407.773438 257.605469 L 429.003906 257.605469 C 431.933594 257.605469 434.3125 259.984375 434.3125 262.90625 C 434.3125 265.828125 431.933594 268.207031 429.003906 268.207031 L 402.46875 268.207031 C 399.542969 268.207031 397.160156 265.828125 397.160156 262.90625 L 397.160156 231.84375 C 400.910156 231.722656 404.433594 231.515625 407.773438 231.222656 Z M 448.472656 186.269531 L 449.5 188.699219 L 512.601562 188.699219 C 516.261719 188.699219 519.238281 191.671875 519.238281 195.328125 C 519.238281 198.980469 516.261719 201.953125 512.601562 201.953125 L 449.5 201.953125 L 448.472656 204.382812 C 444.296875 214.277344 431.777344 220.5 411.265625 222.878906 C 406.914062 223.382812 402.257812 223.714844 397.160156 223.890625 L 397.160156 166.765625 C 402.253906 166.9375 406.988281 167.277344 411.265625 167.777344 C 431.777344 170.152344 444.296875 176.375 448.472656 186.269531 Z M 402.46875 125.097656 L 429.003906 125.097656 C 431.933594 125.097656 434.3125 127.476562 434.3125 130.398438 C 434.3125 133.320312 431.933594 135.699219 429.003906 135.699219 L 407.773438 135.699219 L 407.773438 159.425781 C 404.433594 159.132812 400.910156 158.929688 397.160156 158.808594 L 397.160156 130.402344 C 397.160156 127.476562 399.542969 125.097656 402.46875 125.097656 Z M 402.46875 125.097656"/></g><g fill="#FFF"><use x="346.323" y="637.917" xmlns:xlink="http://www.w3.org/1999/xlink" xlink:href="#p" xlink:type="simple" xlink:actuate="onLoad" xlink:show="embed"/></g><g fill="#FFF"><use x="359.789" y="637.917" xmlns:xlink="http://www.w3.org/1999/xlink" xlink:href="#q" xlink:type="simple" xlink:actuate="onLoad" xlink:show="embed"/></g><g fill="#FFF"><use x="373.255" y="637.917" xmlns:xlink="http://www.w3.org/1999/xlink" xlink:href="#r" xlink:type="simple" xlink:actuate="onLoad" xlink:show="embed"/></g><g fill="#FFF"><use x="382.874" y="637.917" xmlns:xlink="http://www.w3.org/1999/xlink" xlink:href="#s" xlink:type="simple" xlink:actuate="onLoad" xlink:show="embed"/></g><g fill="#FFF"><use x="396.34" y="637.917" xmlns:xlink="http://www.w3.org/1999/xlink" xlink:href="#q" xlink:type="simple" xlink:actuate="onLoad" xlink:show="embed"/></g><g fill="#FFF"><use x="409.807" y="637.917" xmlns:xlink="http://www.w3.org/1999/xlink" xlink:href="#p" xlink:type="simple" xlink:actuate="onLoad" xlink:show="embed"/></g><g fill="#FFF"><use x="423.273" y="637.917" xmlns:xlink="http://www.w3.org/1999/xlink" xlink:href="#t" xlink:type="simple" xlink:actuate="onLoad" xlink:show="embed"/></g><g fill="#FFF"><use x="436.739" y="637.917" xmlns:xlink="http://www.w3.org/1999/xlink" xlink:href="#p" xlink:type="simple" xlink:actuate="onLoad" xlink:show="embed"/></g><g fill="#FFF"><use x="450.206" y="637.917" xmlns:xlink="http://www.w3.org/1999/xlink" xlink:href="#p" xlink:type="simple" xlink:actuate="onLoad" xlink:show="embed"/></g></svg>